G04 Layer_Physical_Order=1*
G04 Layer_Color=255*
%FSLAX44Y44*%
%MOMM*%
G71*
G01*
G75*
%ADD10R,0.6000X0.5000*%
%ADD11R,0.5000X0.6000*%
%ADD12O,0.2000X0.6500*%
%ADD13O,0.6500X0.2000*%
%ADD14R,2.6000X2.6000*%
%ADD15R,0.9000X0.6500*%
%ADD16R,1.6000X1.0000*%
%ADD17O,0.3000X0.5000*%
%ADD18R,2.3800X1.6500*%
%ADD19R,0.3000X0.8500*%
%ADD20R,0.3500X0.6000*%
%ADD21R,0.6000X0.3500*%
G04:AMPARAMS|DCode=22|XSize=0.7366mm|YSize=2.54mm|CornerRadius=0mm|HoleSize=0mm|Usage=FLASHONLY|Rotation=225.000|XOffset=0mm|YOffset=0mm|HoleType=Round|Shape=Rectangle|*
%AMROTATEDRECTD22*
4,1,4,-0.6376,1.1584,1.1584,-0.6376,0.6376,-1.1584,-1.1584,0.6376,-0.6376,1.1584,0.0*
%
%ADD22ROTATEDRECTD22*%

%ADD23C,1.5000*%
%ADD24C,0.8000*%
%ADD25R,1.0000X0.8000*%
%ADD26R,1.0500X0.8000*%
%ADD27R,1.0500X0.6000*%
%ADD28R,0.7000X0.9000*%
%ADD29R,0.9000X0.7000*%
%ADD30R,0.5500X0.2500*%
%ADD31R,1.0000X0.6000*%
%ADD32C,0.6000*%
%ADD33C,0.5820*%
%ADD34C,0.1500*%
%ADD35C,0.3000*%
%ADD36C,0.2540*%
%ADD37R,0.2500X1.1946*%
%ADD38R,3.5000X0.6000*%
%ADD39R,0.6000X2.1000*%
%ADD40C,0.9000*%
%ADD41C,1.0000*%
%ADD42C,0.6000*%
G36*
X-57639Y18700D02*
X-57841Y18484D01*
X-58021Y18258D01*
X-58180Y18024D01*
X-58318Y17781D01*
X-58435Y17529D01*
X-58530Y17269D01*
X-58604Y17000D01*
X-58658Y16722D01*
X-58689Y16435D01*
X-58700Y16139D01*
X-60200D01*
X-60211Y16435D01*
X-60242Y16722D01*
X-60296Y17000D01*
X-60370Y17269D01*
X-60465Y17529D01*
X-60582Y17781D01*
X-60720Y18024D01*
X-60879Y18258D01*
X-61059Y18484D01*
X-61261Y18700D01*
X-60511Y20071D01*
X-60299Y19880D01*
X-60086Y19732D01*
X-59874Y19626D01*
X-59662Y19562D01*
X-59450Y19541D01*
X-59238Y19562D01*
X-59026Y19626D01*
X-58814Y19732D01*
X-58601Y19880D01*
X-58389Y20071D01*
X-57639Y18700D01*
D02*
G37*
G36*
X-19750Y41000D02*
X-16000D01*
X-16000Y41000D01*
X-16000D01*
X-15000D01*
Y41000D01*
X-14500Y41000D01*
X-11945D01*
X-10799Y39750D01*
Y35250D01*
X-10605Y34275D01*
X-10254Y33750D01*
X-10614Y32671D01*
X-10919Y32250D01*
X-12750D01*
Y30419D01*
X-13171Y30114D01*
X-14250Y29754D01*
X-14775Y30105D01*
X-15750Y30299D01*
X-19955D01*
X-20356Y30700D01*
Y34732D01*
X-20531Y35610D01*
X-21028Y36354D01*
X-24288Y39614D01*
X-23714Y41000D01*
X-21250D01*
Y45000D01*
X-19750D01*
Y41000D01*
D02*
G37*
G36*
X-46039Y28715D02*
X-46008Y28428D01*
X-45954Y28150D01*
X-45880Y27881D01*
X-45785Y27620D01*
X-45668Y27369D01*
X-45530Y27126D01*
X-45371Y26892D01*
X-45191Y26667D01*
X-44989Y26450D01*
X-45739Y25079D01*
X-45951Y25270D01*
X-46164Y25418D01*
X-46376Y25524D01*
X-46588Y25588D01*
X-46800Y25609D01*
X-47012Y25588D01*
X-47224Y25524D01*
X-47436Y25418D01*
X-47649Y25270D01*
X-47861Y25079D01*
X-48611Y26450D01*
X-48409Y26667D01*
X-48229Y26892D01*
X-48070Y27126D01*
X-47932Y27369D01*
X-47815Y27620D01*
X-47720Y27881D01*
X-47646Y28150D01*
X-47592Y28428D01*
X-47561Y28715D01*
X-47550Y29011D01*
X-46050D01*
X-46039Y28715D01*
D02*
G37*
G36*
X-52450Y8500D02*
Y3500D01*
Y-250D01*
X-53700D01*
Y-4750D01*
X-55200D01*
Y-250D01*
X-58700D01*
Y-4750D01*
X-60200D01*
Y-250D01*
X-66450D01*
Y-0D01*
Y1000D01*
X-70950D01*
Y2500D01*
X-66450D01*
Y3500D01*
Y6000D01*
X-70950D01*
Y7500D01*
X-66450D01*
Y8500D01*
Y8750D01*
X-52450D01*
Y8500D01*
D02*
G37*
G36*
X-34500Y113639D02*
X-34449Y112643D01*
X-35555Y111500D01*
X-35750D01*
Y102500D01*
X-34250D01*
Y100121D01*
X-35311Y99060D01*
X-36000D01*
X-36459Y99000D01*
X-38250D01*
Y98645D01*
X-39530Y98115D01*
X-40992Y96993D01*
X-42485Y95500D01*
X-46000D01*
Y94750D01*
X-52000D01*
Y92250D01*
X-54250D01*
Y88250D01*
X-55000D01*
Y87500D01*
X-59500D01*
Y84317D01*
X-61256Y84244D01*
X-62744Y85239D01*
X-63750Y85439D01*
Y81000D01*
Y76561D01*
X-62744Y76761D01*
X-61256Y77756D01*
X-61000Y78138D01*
X-59500Y77683D01*
Y74500D01*
X-55750D01*
Y78500D01*
X-54250D01*
Y74500D01*
X-52000D01*
Y72000D01*
X-46470D01*
Y71750D01*
X-46232Y69946D01*
X-45536Y68265D01*
X-44428Y66822D01*
X-36428Y58822D01*
X-34985Y57714D01*
X-33304Y57018D01*
X-31500Y56780D01*
X-6941D01*
X-6750Y55332D01*
Y50189D01*
X-6750Y49750D01*
X-7939Y49000D01*
X-11256D01*
X-13628Y51372D01*
X-14372Y51870D01*
X-15250Y52044D01*
X-24432D01*
X-24432Y52044D01*
X-34818D01*
X-34818Y52044D01*
X-42682D01*
X-43560Y51870D01*
X-44304Y51372D01*
X-44304Y51372D01*
X-47712Y47964D01*
X-48415Y47314D01*
X-49881Y47747D01*
X-50247Y47991D01*
X-52003Y48340D01*
X-53758Y47991D01*
X-55247Y46996D01*
X-55882Y46046D01*
X-66145D01*
X-66951Y47546D01*
X-66662Y49000D01*
X-67011Y50756D01*
X-68006Y52244D01*
X-69494Y53239D01*
X-71250Y53588D01*
X-73006Y53239D01*
X-74494Y52244D01*
X-75129Y51294D01*
X-76250D01*
X-76250Y51294D01*
X-76982Y51148D01*
X-77128Y51119D01*
X-77872Y50622D01*
X-85122Y43372D01*
X-85619Y42628D01*
X-85794Y41750D01*
Y28800D01*
X-88250D01*
Y24800D01*
X-89750D01*
Y28800D01*
X-93500D01*
X-93500Y28800D01*
X-93500D01*
X-94500D01*
Y28800D01*
X-95000Y28800D01*
X-103500D01*
Y20800D01*
X-104669Y20000D01*
X-111500D01*
Y9000D01*
X-98500D01*
Y9000D01*
X-97500D01*
Y9000D01*
X-85794D01*
Y-1242D01*
X-87294Y-1697D01*
X-87756Y-1006D01*
X-89244Y-11D01*
X-90250Y189D01*
Y-4250D01*
X-91000D01*
Y-5000D01*
X-95439D01*
X-95239Y-6006D01*
X-94244Y-7494D01*
X-94236Y-7500D01*
X-94691Y-9000D01*
X-97500D01*
Y-9000D01*
X-98500D01*
Y-9000D01*
X-111500D01*
Y-20000D01*
X-106544D01*
Y-22621D01*
X-107494Y-23256D01*
X-108489Y-24744D01*
X-108838Y-26500D01*
X-108489Y-28256D01*
X-107494Y-29744D01*
X-106544Y-30379D01*
Y-32250D01*
X-106500Y-32471D01*
Y-38500D01*
X-97500D01*
Y-38500D01*
X-96500D01*
X-95224Y-39040D01*
X-95200Y-39050D01*
Y-48550D01*
Y-52550D01*
X-89200D01*
Y-54050D01*
X-95200D01*
Y-58050D01*
Y-67550D01*
X-83200D01*
Y-58050D01*
Y-53591D01*
X-81700Y-53443D01*
X-81439Y-54756D01*
X-80444Y-56244D01*
X-78956Y-57239D01*
X-77950Y-57439D01*
Y-53000D01*
X-76450D01*
Y-57439D01*
X-75444Y-57239D01*
X-73956Y-56244D01*
X-72961Y-54756D01*
X-72839Y-54144D01*
X-72780Y-54040D01*
X-71187Y-53060D01*
X-70943Y-53109D01*
X-70943Y-53109D01*
X-70117D01*
X-69259Y-53967D01*
Y-58050D01*
X-71200D01*
Y-67550D01*
X-68259D01*
Y-70100D01*
X-69950D01*
Y-82100D01*
X-59950D01*
Y-70100D01*
X-62141D01*
Y-67550D01*
X-59200D01*
Y-58286D01*
X-59200Y-58050D01*
X-58374Y-56892D01*
X-57800Y-56508D01*
X-56300Y-57310D01*
Y-60100D01*
X-53208D01*
X-52368Y-61414D01*
X-52350Y-61600D01*
X-52559Y-62650D01*
Y-62900D01*
X-49500D01*
Y-64400D01*
X-52559D01*
Y-64650D01*
X-52554Y-64672D01*
X-52500Y-66150D01*
X-52500Y-66150D01*
X-52500Y-66150D01*
Y-71900D01*
X-33500D01*
Y-67359D01*
X-30400D01*
Y-71300D01*
X-18400D01*
Y-61300D01*
X-26104D01*
X-26400Y-61241D01*
X-26400Y-61241D01*
X-33833D01*
X-34337Y-60487D01*
X-35329Y-59824D01*
X-36500Y-59591D01*
X-37300Y-58935D01*
Y-56850D01*
X-41800D01*
Y-56100D01*
X-42550D01*
Y-52100D01*
X-46300D01*
Y-52100D01*
X-47300D01*
Y-52100D01*
X-49896D01*
X-50178Y-51678D01*
X-51457Y-50399D01*
X-50756Y-48978D01*
X-50000Y-49078D01*
X-47650Y-48768D01*
X-45461Y-47861D01*
X-43581Y-46419D01*
X-42139Y-44539D01*
X-41232Y-42350D01*
X-40922Y-40000D01*
X-41232Y-37650D01*
X-42139Y-35461D01*
X-43581Y-33581D01*
X-45461Y-32139D01*
X-47650Y-31232D01*
X-50000Y-30922D01*
X-52138Y-31204D01*
X-52534Y-30769D01*
X-52902Y-29846D01*
X-46800Y-23744D01*
X-34525D01*
X-33647Y-23569D01*
X-32903Y-23072D01*
X-30523Y-20692D01*
X-29023Y-21313D01*
Y-26271D01*
X-28848Y-27149D01*
X-28351Y-27893D01*
X-25919Y-30325D01*
X-26769Y-31597D01*
X-27650Y-31232D01*
X-29250Y-31021D01*
Y-40000D01*
Y-48979D01*
X-27650Y-48768D01*
X-25461Y-47861D01*
X-23581Y-46419D01*
X-22139Y-44539D01*
X-21744Y-43586D01*
X-20244Y-43885D01*
Y-47817D01*
X-20069Y-48695D01*
X-19572Y-49439D01*
X-14739Y-54272D01*
X-14321Y-56118D01*
X-14339Y-56144D01*
X-14688Y-57900D01*
X-14339Y-59656D01*
X-13344Y-61144D01*
X-13000Y-61374D01*
Y-71750D01*
X-13400D01*
Y-80750D01*
X13400D01*
Y-71750D01*
X13000D01*
Y-61707D01*
X13019Y-61678D01*
X13176Y-60891D01*
X14144Y-60244D01*
X15139Y-58756D01*
X15488Y-57000D01*
X15139Y-55244D01*
X14144Y-53756D01*
X12656Y-52761D01*
X10900Y-52412D01*
X10634Y-52465D01*
X9188Y-52300D01*
X9004Y-51376D01*
X8839Y-50544D01*
X8609Y-50201D01*
X8201Y-48688D01*
X8831Y-48038D01*
X13372Y-43497D01*
X13372Y-43497D01*
X13869Y-42752D01*
X14044Y-41875D01*
Y-5317D01*
X14105Y-5225D01*
X14299Y-4250D01*
Y250D01*
X14105Y1225D01*
X13754Y1750D01*
X14114Y2829D01*
X14419Y3250D01*
X16250D01*
Y5081D01*
X16671Y5386D01*
X17750Y5746D01*
X18275Y5395D01*
X19206Y5210D01*
Y-3750D01*
X16528Y-6428D01*
X16031Y-7172D01*
X15856Y-8050D01*
Y-42732D01*
X16031Y-43610D01*
X16528Y-44354D01*
X17846Y-45672D01*
X18590Y-46170D01*
X19468Y-46344D01*
X22966D01*
X23421Y-47844D01*
X22656Y-48356D01*
X21661Y-49844D01*
X21312Y-51600D01*
X21661Y-53356D01*
X22656Y-54844D01*
X23637Y-55500D01*
X23182Y-57000D01*
X19700D01*
Y-67000D01*
X31700D01*
Y-66300D01*
X33233D01*
X33688Y-67800D01*
X33006Y-68256D01*
X32011Y-69744D01*
X31848Y-70561D01*
X31662Y-71500D01*
X31662Y-71500D01*
X30232Y-72000D01*
X26450D01*
Y-76250D01*
X31700D01*
Y-75490D01*
X32391Y-75096D01*
X33200Y-74874D01*
X34494Y-75739D01*
X35500Y-75939D01*
Y-71500D01*
X36250D01*
Y-70750D01*
X40689D01*
X40489Y-69744D01*
X39494Y-68256D01*
X38812Y-67800D01*
X39177Y-66389D01*
X39267Y-66300D01*
X41950D01*
Y-61800D01*
X43450D01*
Y-66300D01*
X45156D01*
Y-70192D01*
X45317Y-71001D01*
X43123Y-73195D01*
X63205Y-93277D01*
X70535Y-85947D01*
X50453Y-65865D01*
X50453Y-65865D01*
X50453Y-65865D01*
X49744Y-64610D01*
Y-60334D01*
X51244Y-59713D01*
X53175Y-61644D01*
Y-63144D01*
X52103Y-64215D01*
X72185Y-84297D01*
X79515Y-76967D01*
X61341Y-58793D01*
X61649Y-57778D01*
X63251Y-57402D01*
X81166Y-75316D01*
X88495Y-67986D01*
X68414Y-47905D01*
X68414Y-47905D01*
X68414Y-47905D01*
X67114Y-47366D01*
Y-45538D01*
X69941Y-42711D01*
X71347Y-43187D01*
X71764Y-44554D01*
X70064Y-46254D01*
X90146Y-66336D01*
X97476Y-59006D01*
X77682Y-39213D01*
X79332Y-37562D01*
X99126Y-57356D01*
X106456Y-50026D01*
X86374Y-29944D01*
D01*
X86044Y-28581D01*
Y-20000D01*
X97500D01*
Y-20000D01*
X98500D01*
Y-20000D01*
X111500D01*
Y-9000D01*
X98500D01*
Y-9000D01*
X97500D01*
Y-9000D01*
X89522D01*
X88948Y-7614D01*
X94322Y-2240D01*
X94819Y-1496D01*
X94994Y-618D01*
Y1621D01*
X95944Y2256D01*
X96939Y3744D01*
X97288Y5500D01*
X96939Y7256D01*
X96776Y7500D01*
X97500Y9000D01*
X98500D01*
Y9000D01*
X111500D01*
Y19773D01*
X111503Y19777D01*
X112400Y20900D01*
X112400Y20900D01*
Y20900D01*
X112400Y22400D01*
Y24150D01*
X107900D01*
Y25650D01*
X112400D01*
Y28900D01*
X108432D01*
X107860Y29969D01*
X107770Y30400D01*
X108088Y32000D01*
X107739Y33756D01*
X106744Y35244D01*
X105256Y36239D01*
X103500Y36588D01*
X101744Y36239D01*
X100256Y35244D01*
X99261Y33756D01*
X98912Y32000D01*
X99230Y30400D01*
X99140Y29969D01*
X98568Y28900D01*
X93400D01*
X93400Y28900D01*
X93240Y29053D01*
X92644Y30456D01*
X93639Y31944D01*
X93988Y33700D01*
X93639Y35456D01*
X92644Y36944D01*
X91156Y37939D01*
X89400Y38288D01*
X88279Y38065D01*
X85539Y40805D01*
X85686Y42298D01*
X85965Y42485D01*
X87181Y44304D01*
X87608Y46450D01*
X87181Y48596D01*
X85965Y50415D01*
X84146Y51631D01*
X82000Y52058D01*
Y53542D01*
X84146Y53969D01*
X85965Y55185D01*
X87181Y57004D01*
X87608Y59150D01*
X87181Y61296D01*
X85965Y63115D01*
X84294Y64232D01*
Y65250D01*
X84119Y66128D01*
X83622Y66872D01*
X81865Y68629D01*
X82088Y69750D01*
X81739Y71506D01*
X80744Y72994D01*
X79256Y73989D01*
X77500Y74338D01*
X75744Y73989D01*
X74256Y72994D01*
X73261Y71506D01*
X72912Y69750D01*
X73261Y67994D01*
X74256Y66506D01*
X75744Y65511D01*
X77500Y65162D01*
X77855Y64699D01*
X78035Y63115D01*
X76819Y61296D01*
X76392Y59150D01*
X74908D01*
X74481Y61296D01*
X73265Y63115D01*
X71594Y64232D01*
Y65200D01*
X71419Y66078D01*
X70922Y66822D01*
X69115Y68629D01*
X69338Y69750D01*
X68989Y71506D01*
X67994Y72994D01*
X66506Y73989D01*
X64750Y74338D01*
X62994Y73989D01*
X61506Y72994D01*
X60511Y71506D01*
X60162Y69750D01*
X60511Y67994D01*
X61506Y66506D01*
X62994Y65511D01*
X64750Y65162D01*
X65129Y64680D01*
X65335Y63115D01*
X64119Y61296D01*
X63692Y59150D01*
X62208D01*
X61781Y61296D01*
X60565Y63115D01*
X58746Y64331D01*
X57350Y64609D01*
Y59150D01*
X55850D01*
Y64609D01*
X54454Y64331D01*
X52635Y63115D01*
X51831Y61913D01*
X50390Y62455D01*
X50456Y62960D01*
X50233Y64657D01*
X49578Y66238D01*
X48536Y67596D01*
X47178Y68638D01*
X45597Y69293D01*
X43900Y69516D01*
X42203Y69293D01*
X40622Y68638D01*
X39264Y67596D01*
X38222Y66238D01*
X37567Y64657D01*
X37344Y62960D01*
X37567Y61263D01*
X38063Y60067D01*
X37465Y59068D01*
X37056Y58738D01*
X36300Y58888D01*
X34544Y58539D01*
X33056Y57544D01*
X32061Y56056D01*
X31932Y55404D01*
X31712Y54300D01*
X31712Y54300D01*
X30242Y54000D01*
X27950D01*
Y50000D01*
X26450D01*
Y54000D01*
X23200D01*
X22700Y54000D01*
X22200D01*
X21700D01*
X21200Y54000D01*
X12750D01*
Y57750D01*
X6970D01*
Y61000D01*
X6732Y62804D01*
X6036Y64485D01*
X4928Y65928D01*
X2178Y68678D01*
X735Y69786D01*
X-946Y70482D01*
X-2750Y70720D01*
X-28613D01*
X-31776Y73882D01*
X-31740Y75730D01*
X-31470Y76000D01*
X45750Y76000D01*
X45750Y109587D01*
X46997Y110420D01*
X50763Y108861D01*
X60057Y104022D01*
X68895Y98392D01*
X77208Y92013D01*
X84934Y84934D01*
X92013Y77208D01*
X98392Y68895D01*
X104022Y60057D01*
X108861Y50763D01*
X112871Y41082D01*
X116021Y31088D01*
X118289Y20858D01*
X119657Y10469D01*
X119681Y9925D01*
X119675Y8519D01*
X117868Y7132D01*
X116265Y5043D01*
X115257Y2610D01*
X114914Y0D01*
X115257Y-2610D01*
X116265Y-5043D01*
X117868Y-7132D01*
X119675Y-8519D01*
X119681Y-9919D01*
X119657Y-10469D01*
X118289Y-20858D01*
X116021Y-31088D01*
X112871Y-41082D01*
X108861Y-50763D01*
X104022Y-60057D01*
X98392Y-68895D01*
X92013Y-77208D01*
X84934Y-84934D01*
X77208Y-92013D01*
X68895Y-98392D01*
X60057Y-104022D01*
X50763Y-108861D01*
X41082Y-112871D01*
X31088Y-116021D01*
X20858Y-118289D01*
X10469Y-119657D01*
X0Y-120114D01*
X-10469Y-119657D01*
X-20858Y-118289D01*
X-31088Y-116021D01*
X-41082Y-112871D01*
X-50763Y-108861D01*
X-60057Y-104022D01*
X-68895Y-98392D01*
X-77208Y-92013D01*
X-84934Y-84934D01*
X-92013Y-77208D01*
X-98392Y-68895D01*
X-104022Y-60057D01*
X-108861Y-50763D01*
X-112871Y-41082D01*
X-116021Y-31088D01*
X-118289Y-20858D01*
X-119657Y-10469D01*
X-119682Y-9900D01*
X-119676Y-8514D01*
X-119676D01*
X-119676Y-8514D01*
X-117869Y-7128D01*
X-116266Y-5039D01*
X-115259Y-2607D01*
X-114915Y3D01*
X-115259Y2612D01*
X-116266Y5044D01*
X-117869Y7133D01*
X-119675Y8519D01*
X-119681Y9918D01*
X-119657Y10469D01*
X-118289Y20858D01*
X-116021Y31088D01*
X-112871Y41082D01*
X-108861Y50763D01*
X-104022Y60057D01*
X-98392Y68895D01*
X-92013Y77208D01*
X-84934Y84934D01*
X-77208Y92013D01*
X-68895Y98392D01*
X-60057Y104022D01*
X-50763Y108861D01*
X-41082Y112871D01*
X-35775Y114544D01*
X-34500Y113639D01*
D02*
G37*
G36*
X25677Y44500D02*
X24556Y43751D01*
X23561Y42262D01*
X23212Y40507D01*
X23561Y38751D01*
X24556Y37262D01*
X25506Y36627D01*
Y33075D01*
X25680Y32197D01*
X26178Y31453D01*
X29531Y28100D01*
Y20233D01*
X28149Y18851D01*
X27733Y18228D01*
X27245Y18180D01*
X26175Y18372D01*
X26105Y18725D01*
X25552Y19552D01*
Y20948D01*
X26105Y21775D01*
X26299Y22750D01*
X26105Y23725D01*
X25552Y24552D01*
Y25948D01*
X26105Y26775D01*
X26299Y27750D01*
X26105Y28725D01*
X25552Y29552D01*
X24725Y30105D01*
X23794Y30290D01*
Y31600D01*
X23619Y32478D01*
X23122Y33222D01*
X22565Y33779D01*
X22788Y34900D01*
X22439Y36656D01*
X21444Y38144D01*
X19956Y39139D01*
X18200Y39488D01*
X16728Y39195D01*
X16035Y40021D01*
X15844Y40433D01*
X19597Y44186D01*
X19597Y44186D01*
X20209Y45102D01*
X20388Y46000D01*
X21200D01*
X21700Y46000D01*
X22200D01*
X22700D01*
X23200Y46000D01*
X25248D01*
X25677Y44500D01*
D02*
G37*
G36*
X60761Y35444D02*
X61756Y33956D01*
X63244Y32961D01*
X65000Y32612D01*
X66756Y32961D01*
X68244Y33956D01*
X68879Y34906D01*
X72107D01*
X76956Y30057D01*
Y18904D01*
X75456Y18098D01*
X74000Y18388D01*
X72244Y18039D01*
X70756Y17044D01*
X69761Y15556D01*
X69412Y13800D01*
X69761Y12044D01*
X70396Y11094D01*
X69700Y9594D01*
X60700D01*
X59822Y9419D01*
X59078Y8922D01*
X56978Y6822D01*
X56481Y6078D01*
X56394Y5643D01*
X54894Y5791D01*
Y9823D01*
X55600Y11212D01*
X57356Y11561D01*
X58844Y12556D01*
X59839Y14044D01*
X60039Y15050D01*
X55600D01*
Y15800D01*
X54850D01*
Y20239D01*
X53844Y20039D01*
X53294Y19671D01*
X51794Y20473D01*
Y31150D01*
X53579Y32935D01*
X54700Y32712D01*
X56456Y33061D01*
X57944Y34056D01*
X58939Y35544D01*
X59075Y36230D01*
X60605D01*
X60761Y35444D01*
D02*
G37*
%LPC*%
G36*
X-91750Y189D02*
X-92756Y-11D01*
X-94244Y-1006D01*
X-95239Y-2494D01*
X-95439Y-3500D01*
X-91750D01*
Y189D01*
D02*
G37*
G36*
X-30750Y-31021D02*
X-32350Y-31232D01*
X-34539Y-32139D01*
X-36419Y-33581D01*
X-37861Y-35461D01*
X-38768Y-37650D01*
X-38979Y-39250D01*
X-30750D01*
Y-31021D01*
D02*
G37*
G36*
X-74950Y-70100D02*
X-79200D01*
Y-75350D01*
X-74950D01*
Y-70100D01*
D02*
G37*
G36*
X-37300Y-52100D02*
X-41050D01*
Y-55350D01*
X-37300D01*
Y-52100D01*
D02*
G37*
G36*
X-30750Y-40750D02*
X-38979D01*
X-38768Y-42350D01*
X-37861Y-44539D01*
X-36419Y-46419D01*
X-34539Y-47861D01*
X-32350Y-48768D01*
X-30750Y-48979D01*
Y-40750D01*
D02*
G37*
G36*
X94700Y59356D02*
X93003Y59133D01*
X91422Y58478D01*
X90064Y57436D01*
X89022Y56078D01*
X88367Y54497D01*
X88144Y52800D01*
X88367Y51103D01*
X89022Y49522D01*
X90064Y48164D01*
X91422Y47122D01*
X93003Y46467D01*
X94700Y46244D01*
X96397Y46467D01*
X97978Y47122D01*
X99336Y48164D01*
X100378Y49522D01*
X101033Y51103D01*
X101256Y52800D01*
X101033Y54497D01*
X100378Y56078D01*
X99336Y57436D01*
X97978Y58478D01*
X96397Y59133D01*
X94700Y59356D01*
D02*
G37*
G36*
X37278Y-79041D02*
X34143Y-82175D01*
X43653Y-91686D01*
X46788Y-88551D01*
X37278Y-79041D01*
D02*
G37*
G36*
X52044Y-85417D02*
X48909Y-88551D01*
X58420Y-98062D01*
X61555Y-94927D01*
X52044Y-85417D01*
D02*
G37*
G36*
X33450Y-85861D02*
Y-89550D01*
X37139D01*
X36939Y-88544D01*
X35944Y-87056D01*
X34456Y-86061D01*
X33450Y-85861D01*
D02*
G37*
G36*
X31950D02*
X30944Y-86061D01*
X29456Y-87056D01*
X28461Y-88544D01*
X28261Y-89550D01*
X31950D01*
Y-85861D01*
D02*
G37*
G36*
X-2750Y-112000D02*
X-7000D01*
Y-117250D01*
X-2750D01*
Y-112000D01*
D02*
G37*
G36*
X-8500D02*
X-12750D01*
Y-117250D01*
X-8500D01*
Y-112000D01*
D02*
G37*
G36*
X47849Y-89612D02*
X44714Y-92746D01*
X54225Y-102257D01*
X57359Y-99122D01*
X47849Y-89612D01*
D02*
G37*
G36*
X-33500Y-73400D02*
X-52500D01*
Y-79150D01*
X-52500Y-79150D01*
X-52554Y-80627D01*
X-52559Y-80650D01*
Y-81650D01*
Y-82650D01*
Y-84750D01*
X-52559Y-84750D01*
X-52326Y-85921D01*
X-51663Y-86913D01*
X-48000Y-90576D01*
Y-97250D01*
X-45080D01*
X-44516Y-98750D01*
X-45237Y-99382D01*
X-46293Y-101523D01*
X-46449Y-103905D01*
X-45682Y-106165D01*
X-44108Y-107960D01*
X-41967Y-109016D01*
X-39585Y-109172D01*
X-37325Y-108404D01*
X-35669Y-106952D01*
X-34874Y-107080D01*
X-34122Y-107367D01*
X-33414Y-109452D01*
X-31841Y-111247D01*
X-29700Y-112303D01*
X-27318Y-112459D01*
X-25058Y-111691D01*
X-23263Y-110118D01*
X-22207Y-107977D01*
X-22131Y-106809D01*
X-12750D01*
Y-109950D01*
X-2750D01*
Y-107697D01*
X-1250Y-107076D01*
X2250Y-110576D01*
Y-117250D01*
X12250D01*
Y-106808D01*
X22131D01*
X22207Y-107977D01*
X23263Y-110118D01*
X25058Y-111691D01*
X27318Y-112459D01*
X29700Y-112303D01*
X31841Y-111247D01*
X33414Y-109452D01*
X34122Y-107367D01*
X34874Y-107080D01*
X35669Y-106952D01*
X37325Y-108404D01*
X39585Y-109172D01*
X41967Y-109016D01*
X44108Y-107960D01*
X45682Y-106165D01*
X46449Y-103905D01*
X46293Y-101523D01*
X45237Y-99382D01*
X43442Y-97809D01*
X41182Y-97041D01*
X38801Y-97197D01*
X38334Y-96730D01*
X37342Y-96067D01*
X36171Y-95835D01*
X35663Y-95537D01*
X35580Y-93787D01*
X35944Y-93544D01*
X36939Y-92056D01*
X37139Y-91050D01*
X28261D01*
X28461Y-92056D01*
X29456Y-93544D01*
X30638Y-94334D01*
X30354Y-95835D01*
X13000D01*
Y-91250D01*
X13400D01*
Y-82250D01*
X-13400D01*
Y-91250D01*
X-13000D01*
Y-95835D01*
X-23000D01*
Y-92000D01*
X-28000D01*
Y-90500D01*
X-23000D01*
Y-86300D01*
X-18400D01*
Y-82050D01*
X-30400D01*
Y-85250D01*
X-32011D01*
X-33131Y-84858D01*
X-33441Y-83933D01*
Y-81650D01*
Y-80650D01*
X-33446Y-80627D01*
X-33500Y-79150D01*
X-33500Y-79150D01*
X-33500Y-79150D01*
Y-73400D01*
D02*
G37*
G36*
X40689Y-72250D02*
X37000D01*
Y-75939D01*
X38006Y-75739D01*
X38448Y-75443D01*
X38448D01*
X38482Y-75421D01*
X39390Y-74855D01*
X39436Y-74911D01*
X39563Y-75066D01*
X40325Y-75994D01*
X38338Y-77980D01*
X47849Y-87491D01*
X50983Y-84356D01*
X41473Y-74845D01*
X40744Y-75575D01*
X39816Y-74813D01*
X39661Y-74686D01*
X39605Y-74640D01*
X40171Y-73732D01*
X40193Y-73698D01*
X40193Y-73698D01*
X40489Y-73256D01*
X40689Y-72250D01*
D02*
G37*
G36*
X-18400Y-76300D02*
X-23650D01*
Y-80550D01*
X-18400D01*
Y-76300D01*
D02*
G37*
G36*
X-25150D02*
X-30400D01*
Y-80550D01*
X-25150D01*
Y-76300D01*
D02*
G37*
G36*
X-80700Y-70100D02*
X-84950D01*
Y-75350D01*
X-80700D01*
Y-70100D01*
D02*
G37*
G36*
X24950Y-72000D02*
X19700D01*
Y-76250D01*
X24950D01*
Y-72000D01*
D02*
G37*
G36*
X-74950Y-76850D02*
X-79200D01*
Y-82100D01*
X-74950D01*
Y-76850D01*
D02*
G37*
G36*
X-80700D02*
X-84950D01*
Y-82100D01*
X-80700D01*
Y-76850D01*
D02*
G37*
G36*
X31700Y-77750D02*
X26450D01*
Y-82000D01*
X31700D01*
Y-77750D01*
D02*
G37*
G36*
X24950D02*
X19700D01*
Y-82000D01*
X24950D01*
Y-77750D01*
D02*
G37*
G36*
X-65250Y85439D02*
X-66256Y85239D01*
X-67744Y84244D01*
X-68739Y82756D01*
X-68939Y81750D01*
X-65250D01*
Y85439D01*
D02*
G37*
G36*
X57689Y85250D02*
X54000D01*
Y81561D01*
X55006Y81761D01*
X56494Y82756D01*
X57489Y84244D01*
X57689Y85250D01*
D02*
G37*
G36*
X54000Y90439D02*
Y86750D01*
X57689D01*
X57489Y87756D01*
X56494Y89244D01*
X55006Y90239D01*
X54000Y90439D01*
D02*
G37*
G36*
X52500D02*
X51494Y90239D01*
X50006Y89244D01*
X49011Y87756D01*
X48811Y86750D01*
X52500D01*
Y90439D01*
D02*
G37*
G36*
X54000Y77939D02*
Y74250D01*
X57689D01*
X57489Y75256D01*
X56494Y76744D01*
X55006Y77739D01*
X54000Y77939D01*
D02*
G37*
G36*
X52500D02*
X51494Y77739D01*
X50006Y76744D01*
X49011Y75256D01*
X48811Y74250D01*
X52500D01*
Y77939D01*
D02*
G37*
G36*
Y85250D02*
X48811D01*
X49011Y84244D01*
X50006Y82756D01*
X51494Y81761D01*
X52500Y81561D01*
Y85250D01*
D02*
G37*
G36*
X-65250Y80250D02*
X-68939D01*
X-68739Y79244D01*
X-67744Y77756D01*
X-66256Y76761D01*
X-65250Y76561D01*
Y80250D01*
D02*
G37*
G36*
X-55750Y92250D02*
X-59500D01*
Y89000D01*
X-55750D01*
Y92250D01*
D02*
G37*
G36*
X54000Y102939D02*
Y99250D01*
X57689D01*
X57489Y100256D01*
X56494Y101744D01*
X55006Y102739D01*
X54000Y102939D01*
D02*
G37*
G36*
X52500D02*
X51494Y102739D01*
X50006Y101744D01*
X49011Y100256D01*
X48811Y99250D01*
X52500D01*
Y102939D01*
D02*
G37*
G36*
X-45500Y106439D02*
Y102750D01*
X-41811D01*
X-42011Y103756D01*
X-43006Y105244D01*
X-44494Y106239D01*
X-45500Y106439D01*
D02*
G37*
G36*
X-47000D02*
X-48006Y106239D01*
X-49494Y105244D01*
X-50489Y103756D01*
X-50689Y102750D01*
X-47000D01*
Y106439D01*
D02*
G37*
G36*
X57689Y97750D02*
X54000D01*
Y94061D01*
X55006Y94261D01*
X56494Y95256D01*
X57489Y96744D01*
X57689Y97750D01*
D02*
G37*
G36*
X52500D02*
X48811D01*
X49011Y96744D01*
X50006Y95256D01*
X51494Y94261D01*
X52500Y94061D01*
Y97750D01*
D02*
G37*
G36*
X-41811Y101250D02*
X-45500D01*
Y97561D01*
X-44494Y97761D01*
X-43006Y98756D01*
X-42011Y100244D01*
X-41811Y101250D01*
D02*
G37*
G36*
X-47000D02*
X-50689D01*
X-50489Y100244D01*
X-49494Y98756D01*
X-48006Y97761D01*
X-47000Y97561D01*
Y101250D01*
D02*
G37*
G36*
X31500Y72939D02*
Y69250D01*
X35189D01*
X34989Y70256D01*
X33994Y71744D01*
X32506Y72739D01*
X31500Y72939D01*
D02*
G37*
G36*
X22689Y67750D02*
X19000D01*
Y64061D01*
X20006Y64261D01*
X21494Y65256D01*
X22489Y66744D01*
X22689Y67750D01*
D02*
G37*
G36*
X17500D02*
X13811D01*
X14011Y66744D01*
X15006Y65256D01*
X16494Y64261D01*
X17500Y64061D01*
Y67750D01*
D02*
G37*
G36*
X35189D02*
X31500D01*
Y64061D01*
X32506Y64261D01*
X33994Y65256D01*
X34989Y66744D01*
X35189Y67750D01*
D02*
G37*
G36*
X30000D02*
X26311D01*
X26511Y66744D01*
X27506Y65256D01*
X28994Y64261D01*
X30000Y64061D01*
Y67750D01*
D02*
G37*
G36*
X-72561D02*
X-76250D01*
Y64061D01*
X-75244Y64261D01*
X-73756Y65256D01*
X-72761Y66744D01*
X-72561Y67750D01*
D02*
G37*
G36*
X-77750D02*
X-81439D01*
X-81239Y66744D01*
X-80244Y65256D01*
X-78756Y64261D01*
X-77750Y64061D01*
Y67750D01*
D02*
G37*
G36*
X-60061D02*
X-63750D01*
Y64061D01*
X-62744Y64261D01*
X-61256Y65256D01*
X-60261Y66744D01*
X-60061Y67750D01*
D02*
G37*
G36*
X-65250D02*
X-68939D01*
X-68739Y66744D01*
X-67744Y65256D01*
X-66256Y64261D01*
X-65250Y64061D01*
Y67750D01*
D02*
G37*
G36*
X52500Y72750D02*
X48811D01*
X49011Y71744D01*
X50006Y70256D01*
X51494Y69261D01*
X52500Y69061D01*
Y72750D01*
D02*
G37*
G36*
X17500Y72939D02*
X16494Y72739D01*
X15006Y71744D01*
X14011Y70256D01*
X13811Y69250D01*
X17500D01*
Y72939D01*
D02*
G37*
G36*
X-63750D02*
Y69250D01*
X-60061D01*
X-60261Y70256D01*
X-61256Y71744D01*
X-62744Y72739D01*
X-63750Y72939D01*
D02*
G37*
G36*
X30000D02*
X28994Y72739D01*
X27506Y71744D01*
X26511Y70256D01*
X26311Y69250D01*
X30000D01*
Y72939D01*
D02*
G37*
G36*
X19000D02*
Y69250D01*
X22689D01*
X22489Y70256D01*
X21494Y71744D01*
X20006Y72739D01*
X19000Y72939D01*
D02*
G37*
G36*
X-77750D02*
X-78756Y72739D01*
X-80244Y71744D01*
X-81239Y70256D01*
X-81439Y69250D01*
X-77750D01*
Y72939D01*
D02*
G37*
G36*
X57689Y72750D02*
X54000D01*
Y69061D01*
X55006Y69261D01*
X56494Y70256D01*
X57489Y71744D01*
X57689Y72750D01*
D02*
G37*
G36*
X-65250Y72939D02*
X-66256Y72739D01*
X-67744Y71744D01*
X-68739Y70256D01*
X-68939Y69250D01*
X-65250D01*
Y72939D01*
D02*
G37*
G36*
X-76250D02*
Y69250D01*
X-72561D01*
X-72761Y70256D01*
X-73756Y71744D01*
X-75244Y72739D01*
X-76250Y72939D01*
D02*
G37*
G36*
X63850Y29839D02*
X62844Y29639D01*
X61356Y28644D01*
X60361Y27156D01*
X60161Y26150D01*
X63850D01*
Y29839D01*
D02*
G37*
G36*
X65350D02*
Y26150D01*
X69039D01*
X68839Y27156D01*
X67844Y28644D01*
X66356Y29639D01*
X65350Y29839D01*
D02*
G37*
G36*
X56350Y20239D02*
Y16550D01*
X60039D01*
X59839Y17556D01*
X58844Y19044D01*
X57356Y20039D01*
X56350Y20239D01*
D02*
G37*
G36*
X63850Y24650D02*
X60161D01*
X60361Y23644D01*
X61356Y22156D01*
X62844Y21161D01*
X63850Y20961D01*
Y24650D01*
D02*
G37*
G36*
X69039D02*
X65350D01*
Y20961D01*
X66356Y21161D01*
X67844Y22156D01*
X68839Y23644D01*
X69039Y24650D01*
D02*
G37*
%LPD*%
D10*
X-55000Y88250D02*
D03*
X-45000D02*
D03*
X-55000Y78500D02*
D03*
X-45000D02*
D03*
X-38750Y45000D02*
D03*
X-28750D02*
D03*
X-92000Y-34500D02*
D03*
X-102000D02*
D03*
X-51800Y-56100D02*
D03*
X-41800D02*
D03*
X-89000Y24800D02*
D03*
X-99000D02*
D03*
X97900Y24900D02*
D03*
X107900D02*
D03*
X27200Y50000D02*
D03*
X17200D02*
D03*
X-10500Y45000D02*
D03*
X-20500D02*
D03*
X-54400Y-15100D02*
D03*
X-44400D02*
D03*
X-63350Y-15100D02*
D03*
X-73350D02*
D03*
D11*
X-39500Y88500D02*
D03*
Y78500D02*
D03*
X-62800Y25400D02*
D03*
Y35400D02*
D03*
X-55300Y35400D02*
D03*
Y25400D02*
D03*
X-76000Y29000D02*
D03*
Y39000D02*
D03*
X35200Y-51800D02*
D03*
Y-61800D02*
D03*
X64200Y-9100D02*
D03*
Y900D02*
D03*
X37250Y903D02*
D03*
X37250Y-9097D02*
D03*
X44887Y903D02*
D03*
X44887Y-9097D02*
D03*
X52600Y900D02*
D03*
X52600Y-9100D02*
D03*
X42700Y-61800D02*
D03*
X42700Y-51800D02*
D03*
X-27700Y5500D02*
D03*
Y15500D02*
D03*
X-38100Y34000D02*
D03*
Y24000D02*
D03*
X-30600Y34000D02*
D03*
Y24000D02*
D03*
X29500Y12200D02*
D03*
Y2200D02*
D03*
D12*
X-8250Y-2000D02*
D03*
X-3250D02*
D03*
X1750D02*
D03*
X6750D02*
D03*
X11750D02*
D03*
Y37500D02*
D03*
X6750D02*
D03*
X1750D02*
D03*
X-3250D02*
D03*
X-8250D02*
D03*
D13*
X21500Y7750D02*
D03*
Y12750D02*
D03*
Y17750D02*
D03*
Y22750D02*
D03*
Y27750D02*
D03*
X-18000D02*
D03*
Y22750D02*
D03*
Y17750D02*
D03*
Y12750D02*
D03*
Y7750D02*
D03*
D14*
X1750Y17750D02*
D03*
D15*
X-65200Y-43800D02*
D03*
Y-62800D02*
D03*
X-89200D02*
D03*
Y-53300D02*
D03*
Y-43800D02*
D03*
D16*
X-43000Y-72650D02*
D03*
D17*
X-36500Y-81650D02*
D03*
X-43000D02*
D03*
X-49500D02*
D03*
Y-63650D02*
D03*
X-43000D02*
D03*
X-36500D02*
D03*
D18*
X0Y-81500D02*
D03*
D19*
X10000Y-96250D02*
D03*
X5000D02*
D03*
X0D02*
D03*
X-5000D02*
D03*
X-10000D02*
D03*
Y-66750D02*
D03*
X-5000D02*
D03*
X0D02*
D03*
X5000D02*
D03*
X10000D02*
D03*
D20*
X-64450Y-4750D02*
D03*
X-59450D02*
D03*
X-54450D02*
D03*
Y13250D02*
D03*
X-59450D02*
D03*
X-64450D02*
D03*
D21*
X-47950Y-3250D02*
D03*
Y1750D02*
D03*
Y6750D02*
D03*
Y11750D02*
D03*
X-70950D02*
D03*
Y6750D02*
D03*
Y1750D02*
D03*
Y-3250D02*
D03*
D22*
X92750Y-43650D02*
D03*
X83770Y-52630D02*
D03*
X74790Y-61610D02*
D03*
X65809Y-70591D02*
D03*
X47849Y-88551D02*
D03*
X56829Y-79571D02*
D03*
D23*
X-30000Y-40000D02*
D03*
X-50000D02*
D03*
D24*
X69300Y46450D02*
D03*
X56600Y59150D02*
D03*
X82000Y46450D02*
D03*
Y59150D02*
D03*
X56600Y46450D02*
D03*
X69300Y59150D02*
D03*
D25*
X-91000Y14500D02*
D03*
Y-14500D02*
D03*
X-105000D02*
D03*
Y14500D02*
D03*
X105000D02*
D03*
Y-14500D02*
D03*
X91000D02*
D03*
Y14500D02*
D03*
D26*
X-850Y-16800D02*
D03*
Y-37800D02*
D03*
X25650Y-16800D02*
D03*
Y-37800D02*
D03*
D27*
X-850Y-27300D02*
D03*
X25650D02*
D03*
D28*
X-7750Y-111250D02*
D03*
X7250D02*
D03*
X-79950Y-76100D02*
D03*
X-64950D02*
D03*
X-28000Y-91250D02*
D03*
X-43000D02*
D03*
D29*
X25700Y-77000D02*
D03*
Y-62000D02*
D03*
X-24400Y-81300D02*
D03*
Y-66300D02*
D03*
D30*
X8500Y45000D02*
D03*
Y50000D02*
D03*
Y55000D02*
D03*
X0D02*
D03*
Y50000D02*
D03*
Y45000D02*
D03*
D31*
X750Y107000D02*
D03*
Y92000D02*
D03*
X-29250D02*
D03*
Y107000D02*
D03*
D32*
X-36000Y92000D02*
X-29250D01*
X-39500Y88500D02*
X-36000Y92000D01*
D33*
X-39500Y71750D02*
Y78500D01*
X0Y57000D02*
Y61000D01*
X-39500Y71750D02*
X-31500Y63750D01*
X-2750D01*
X0Y61000D01*
D34*
X-71100Y21400D02*
Y34100D01*
X-76000Y39000D02*
X-71100Y34100D01*
X-76000Y39000D02*
X-71250Y43750D01*
X-68093D01*
X-68091Y43752D01*
X-76250Y49000D02*
X-71250D01*
X-83500Y41750D02*
X-76250Y49000D01*
X82000Y59250D02*
Y65250D01*
X77500Y69750D02*
X82000Y65250D01*
X69300Y59250D02*
X69400Y59150D01*
X69300Y59250D02*
Y65200D01*
Y59150D02*
Y59250D01*
X64750Y69750D02*
X69300Y65200D01*
X22550Y42681D02*
X27200Y47331D01*
Y50000D01*
X-63350Y-15100D02*
X-63350Y-15100D01*
X-54400D01*
X-64500Y-25500D02*
Y-20750D01*
X-63350Y-19600D01*
Y-15100D01*
X-38750Y44000D02*
X-38100Y43350D01*
Y34000D02*
Y43350D01*
X-3250Y22750D02*
Y37500D01*
X-18000Y22750D02*
X-3250D01*
X1750Y17750D02*
X9350Y10150D01*
X-3250Y22750D02*
X1750Y17750D01*
X-46800Y37900D02*
X-46753Y37947D01*
X-28750Y40832D02*
X-22650Y34732D01*
X-28750Y40832D02*
Y44000D01*
X-22650Y29750D02*
Y34732D01*
X-68091Y43752D02*
X-52003D01*
X-56900Y40700D02*
X-55300Y39100D01*
X-66500Y40700D02*
X-56900D01*
X-55300Y35400D02*
Y39100D01*
X-79200Y-9250D02*
X-73350Y-15100D01*
X-79200Y-9250D02*
Y17543D01*
X-76000Y20743D01*
Y29000D01*
X-68100Y39100D02*
X-66500Y40700D01*
X-68100Y21050D02*
Y39100D01*
X-84000Y-34000D02*
Y-33800D01*
X-84000Y-33800D01*
X-104250Y-32250D02*
Y-26500D01*
Y-32250D02*
X-102000Y-34500D01*
X-105000Y-14500D02*
X-104250Y-15250D01*
Y-26500D02*
Y-15250D01*
X-89500Y-43500D02*
X-89200Y-43800D01*
X62309Y-67091D02*
X65809Y-70591D01*
X61866Y-67091D02*
X62309D01*
X51900Y-57125D02*
Y-52875D01*
Y-57125D02*
X61866Y-67091D01*
X51900Y-52875D02*
X75500Y-29275D01*
X47450Y-53083D02*
X70137Y-30395D01*
X47450Y-70192D02*
Y-53083D01*
Y-70192D02*
X56829Y-79571D01*
X75500Y-29275D02*
Y-8783D01*
X35200Y-45375D02*
X64200Y-16375D01*
X35200Y-51600D02*
Y-45375D01*
X36800Y-51800D02*
X42700D01*
X35200Y-51600D02*
X36400D01*
X25900D02*
X35200D01*
Y-51800D02*
Y-51600D01*
X70137Y-30395D02*
Y-6463D01*
X-76200Y16300D02*
X-71100Y21400D01*
X-76200Y-2200D02*
Y16300D01*
X-75150Y-3250D02*
X-70950D01*
X-76200Y-2200D02*
X-75150Y-3250D01*
X-54450Y-4750D02*
X-54400Y-4800D01*
Y-15100D02*
Y-4800D01*
X-47950Y-7550D02*
Y-3250D01*
Y-7550D02*
X-44400Y-11100D01*
Y-15100D02*
Y-11100D01*
Y-15100D02*
X-43300Y-16200D01*
X-72200Y-9900D02*
X-65700D01*
X-73350Y-11050D02*
X-72200Y-9900D01*
X-73350Y-15100D02*
Y-11050D01*
X-64450Y-8650D02*
Y-4750D01*
X-65700Y-9900D02*
X-64450Y-8650D01*
X-105000Y-14500D02*
X-91000D01*
X-47950Y-3250D02*
X-44050D01*
X-5000Y48500D02*
X-3500Y50000D01*
X0D01*
X-5000Y42818D02*
Y48500D01*
Y42818D02*
X-4500Y42318D01*
Y42200D02*
Y42318D01*
Y42200D02*
X-3250Y40950D01*
Y37500D02*
Y40950D01*
X-20650Y27750D02*
X-18000D01*
X-22650Y29750D02*
X-20650Y27750D01*
X-22025Y22750D02*
X-18000D01*
X-25650Y26375D02*
X-22025Y22750D01*
X91000Y-14500D02*
X105000D01*
X83750Y-9568D02*
X92700Y-618D01*
Y5500D01*
X91000Y14500D02*
X105000D01*
X-18000Y7750D02*
X-8250D01*
X1750Y17750D01*
X21500D01*
X-65200Y-43800D02*
X-65100Y-43700D01*
X-70950Y1750D02*
Y6750D01*
Y11750D01*
X67250Y-54071D02*
X74790Y-61610D01*
X73800Y-42660D02*
X83770Y-52630D01*
X73800Y-42660D02*
Y-39850D01*
X64820Y-51641D02*
X74790Y-61610D01*
X64820Y-51641D02*
Y-44588D01*
X80750Y-28657D01*
X73800Y-39850D02*
X83750Y-29900D01*
Y-9568D01*
X80750Y-28657D02*
Y-8325D01*
X75469Y-8752D02*
X75500Y-8783D01*
Y-1100D02*
X76000D01*
X-8250Y-4400D02*
Y-2000D01*
X6750Y-5550D02*
Y-2000D01*
X-64450Y13250D02*
Y17400D01*
X-62500Y21000D02*
X-59450Y17950D01*
Y13250D02*
Y17950D01*
X-62500Y21000D02*
Y26500D01*
X-21268Y17750D02*
X-18000D01*
X-55300Y25400D02*
Y26582D01*
X-54450Y13250D02*
Y15150D01*
X-1900Y-10500D02*
X1750Y-6850D01*
Y-2000D01*
X6650Y-5650D02*
X6750Y-5550D01*
X18150Y-42732D02*
X19468Y-44050D01*
X70137Y-6463D02*
X75500Y-1100D01*
X36700Y-51900D02*
X36800Y-51800D01*
X-28450Y7750D02*
X-27700D01*
X-29200Y7000D02*
X-28450Y7750D01*
X-20750D02*
X-18000D01*
X-23000Y5500D02*
X-20750Y7750D01*
X-27700Y5500D02*
X-23000D01*
X-26300Y17000D02*
X-26250Y16950D01*
X-29200Y17000D02*
X-26300D01*
X-27700Y15500D02*
X-24500D01*
X-21750Y12750D01*
X-18000D01*
X-30600Y24000D02*
X-27518D01*
X-21268Y17750D01*
X-38100Y24000D02*
X-30600D01*
X-68100Y21050D02*
X-64450Y17400D01*
X-38100Y34000D02*
X-33118D01*
X-46800Y27200D02*
X-43600Y24000D01*
X-38100D01*
X-46800Y27200D02*
Y37900D01*
X-48600Y25400D02*
X-46800Y27200D01*
X-55300Y25400D02*
X-48600D01*
X-30600Y34000D02*
X-27600D01*
X-25650Y32050D01*
Y26375D02*
Y32050D01*
X-62800Y34082D02*
Y35400D01*
Y34082D02*
X-55300Y26582D01*
X44887Y-97D02*
Y30838D01*
X18150Y-42732D02*
Y-8050D01*
X21500Y-4700D01*
Y7750D01*
X49500Y32100D02*
X54700Y37300D01*
X49500Y13800D02*
Y32100D01*
X36150Y54150D02*
X36300Y54300D01*
X36150Y39574D02*
X44887Y30838D01*
X36150Y39574D02*
Y54150D01*
X18200Y34900D02*
X21500Y31600D01*
Y27750D02*
Y31600D01*
X73057Y37200D02*
X79250Y31007D01*
X65000Y37200D02*
X73057D01*
X105000Y14500D02*
Y17800D01*
X97900Y24900D02*
X105000Y17800D01*
X-91000Y14500D02*
Y16800D01*
X-99000Y24800D02*
X-91000Y16800D01*
X21500Y17750D02*
X26050D01*
X28200Y19900D01*
Y27896D01*
X24500Y31596D02*
X28200Y27896D01*
X31825Y19283D02*
Y29050D01*
X29771Y17229D02*
X31825Y19283D01*
X29771Y13021D02*
Y17229D01*
X29500Y12750D02*
X29771Y13021D01*
X21500Y12750D02*
X29500D01*
Y-6600D02*
X29500Y-6600D01*
X29500Y-6600D02*
Y2200D01*
X-59450Y17950D02*
X-57300Y20100D01*
X-54450Y15150D02*
X-52500Y17100D01*
X-850Y-27300D02*
Y-16800D01*
X-3250Y-5350D02*
Y-2000D01*
X25900Y-61800D02*
X36800D01*
X-5400Y-7500D02*
X-3250Y-5350D01*
X-44050Y-3250D02*
X-42700Y-1900D01*
X-47750Y-21450D02*
X-34525D01*
X-13875Y-10500D02*
X-1900D01*
X-34525Y-21450D02*
X-31450Y-18375D01*
Y-14025D01*
X68800Y59650D02*
X69300Y59150D01*
Y41300D02*
Y46450D01*
Y41300D02*
X70400Y40200D01*
X74300D01*
X89400Y25100D01*
X82000Y41100D02*
Y46450D01*
Y41100D02*
X89400Y33700D01*
X-2000Y-37800D02*
X-850D01*
X-101000Y14500D02*
X-91000D01*
X-51800Y-56100D02*
Y-53300D01*
X-65200Y-43800D02*
X-61300D01*
X-51800Y-53300D01*
X84000Y-5076D02*
Y3000D01*
X-103500Y12000D02*
X-101000Y14500D01*
X-73350Y-27450D02*
Y-15100D01*
X-59450Y-4750D02*
X-54450D01*
X-60100Y-33800D02*
X-47750Y-21450D01*
X-73350Y-27450D02*
X-70000Y-30800D01*
X-61343D01*
X-45643Y-15100D01*
X-44400D01*
X-84000Y-33800D02*
X-60100D01*
X-13600Y-19493D02*
X-13500Y-19593D01*
X-8700Y-1550D02*
X-8250Y-2000D01*
X-27050Y-1550D02*
X-8700D01*
X-13600Y-19493D02*
X-13600Y-19493D01*
X-13600Y-19800D02*
X-13450Y-19950D01*
X-13650Y-19743D02*
X-13600Y-19693D01*
X-13500Y-19593D01*
X-13600Y-19800D02*
Y-19693D01*
Y-19493D01*
X-10700Y-13500D02*
X-8350Y-15850D01*
X-18300Y-13500D02*
X-10700D01*
X-12633Y-7500D02*
X-5400D01*
X11750Y-41875D02*
Y-2000D01*
X-850Y-37800D02*
Y-27300D01*
X-8350Y-21732D02*
Y-15850D01*
Y-21732D02*
X-8350Y-21732D01*
X-8350Y-35625D02*
Y-21732D01*
X-10600Y-46400D02*
X-2000Y-37800D01*
X-11400Y-45600D02*
X-10600Y-46400D01*
X-11400Y-45600D02*
X-10200Y-44400D01*
X-23650Y-21150D02*
X-18700Y-26100D01*
X-26729Y-26271D02*
X-18700Y-34300D01*
X-13450Y-36475D02*
Y-19950D01*
X-17950Y-40975D02*
X-13450Y-36475D01*
X-17950Y-47817D02*
Y-40975D01*
X-14950Y-42225D02*
X-8350Y-35625D01*
X-14950Y-46575D02*
Y-42225D01*
X-10200Y-44400D02*
X-9700D01*
X6650Y-42732D02*
Y-5650D01*
X5332Y-44050D02*
X6650Y-42732D01*
X-1926Y-44050D02*
X5332D01*
X6575Y-47050D02*
X11750Y-41875D01*
X-683Y-47050D02*
X6575D01*
X10000Y-66750D02*
Y-61700D01*
X10900Y-60800D01*
Y-57000D01*
X4600Y-58400D02*
Y-52300D01*
Y-58400D02*
X5000Y-58800D01*
Y-66750D02*
Y-58800D01*
X36400Y-51600D02*
X36700Y-51900D01*
X-13650Y-19800D02*
Y-19743D01*
X80750Y-8325D02*
X84000Y-5076D01*
X-6283Y-52650D02*
X-683Y-47050D01*
X-17950Y-47817D02*
X-13117Y-52650D01*
X-4750Y-59350D02*
X-2300Y-56900D01*
X-11875Y-49650D02*
X-7525D01*
X-10000Y-66750D02*
X-10000Y-66750D01*
X-10100Y-66650D02*
X-10000Y-66750D01*
X-10100Y-66650D02*
Y-57900D01*
X-14950Y-46575D02*
X-11875Y-49650D01*
X-7525D02*
X-1926Y-44050D01*
X-13117Y-52650D02*
X-6283D01*
X-4750Y-66500D02*
Y-59350D01*
X-5000Y-66750D02*
X-4750Y-66500D01*
X74000Y9100D02*
Y13800D01*
X52600Y-100D02*
Y10700D01*
X49500Y13800D02*
X52600Y10700D01*
X37250Y-97D02*
Y29950D01*
X31900Y35300D02*
X37250Y29950D01*
X25650Y-16800D02*
X34300D01*
X37250Y-13850D01*
Y-10097D01*
X25650Y-27300D02*
X34300D01*
X44887Y-16713D02*
Y-10097D01*
X34300Y-27300D02*
X44887Y-16713D01*
X25650Y-37800D02*
X34290D01*
X52600Y-19490D01*
Y-10100D01*
X19468Y-44050D02*
X32283D01*
X58600Y-17733D01*
X64200Y-16375D02*
Y-10100D01*
X72200Y7300D02*
X74000Y9100D01*
X58600Y-17733D02*
Y5200D01*
X60700Y7300D01*
X72200D01*
X64200Y900D02*
X70043D01*
X79250Y10107D01*
Y31007D01*
X-52500Y17100D02*
X-45368D01*
X-42700Y-1900D02*
Y14432D01*
X-45368Y17100D02*
X-42700Y14432D01*
X-57300Y20100D02*
X-43100D01*
X-37400Y10300D02*
Y14400D01*
X-43100Y20100D02*
X-37400Y14400D01*
Y-8075D02*
Y10300D01*
Y-8075D02*
X-31450Y-14025D01*
X-26729Y-26271D02*
Y-10061D01*
X-16225Y-8150D02*
X-13875Y-10500D01*
X-14983Y-5150D02*
X-12633Y-7500D01*
X-27050Y-1550D02*
X-26600Y-2000D01*
X-43300Y-16200D02*
X-36700D01*
X-18400Y-13400D02*
X-18300Y-13500D01*
X-23650Y-21150D02*
Y-11225D01*
X-20575Y-8150D01*
X-16225D01*
X-26729Y-10061D02*
X-21817Y-5150D01*
X-14983D01*
X-27566Y-2000D02*
X-26600D01*
X27800Y33075D02*
Y40507D01*
X24500Y31596D02*
Y36025D01*
X22550Y37975D02*
X24500Y36025D01*
X27800Y33075D02*
X31825Y29050D01*
X22550Y37975D02*
Y38332D01*
X22550Y38332D02*
X22550Y38332D01*
X22550Y38332D02*
Y42681D01*
X-8250Y37500D02*
Y41250D01*
X-20500Y40000D02*
Y44000D01*
Y40000D02*
X-3250Y22750D01*
X-46250Y102000D02*
X-39750D01*
X-34750Y107000D01*
X-29250D01*
X-24432Y49750D02*
X-24432Y49750D01*
X-42682D02*
X-34818D01*
X-34818Y49750D01*
X-24432D01*
X-46753Y37947D02*
Y45679D01*
X-42682Y49750D01*
X-15250D02*
X-10500Y45000D01*
X-24432Y49750D02*
X-15250D01*
X-11250Y44250D02*
X-8250Y41250D01*
X-89500Y-43500D02*
Y-32000D01*
X-83500Y-26000D01*
Y41750D01*
D35*
X0Y-81500D02*
Y-66750D01*
X-49500Y-84750D02*
X-43000Y-91250D01*
X-36500Y-84750D01*
Y-81650D01*
X-25473Y-103750D02*
X-7257D01*
X-28116Y-106393D02*
X-25473Y-103750D01*
X0Y-104000D02*
X7250Y-111250D01*
X10000Y-98893D02*
Y-96250D01*
Y-98893D02*
X10000Y-98893D01*
X36171D02*
X40384Y-103106D01*
X10000Y-98893D02*
X36171D01*
X-36171Y-98893D02*
X-10000D01*
X-40384Y-103106D02*
X-36171Y-98893D01*
X-10000D02*
X-10000Y-98893D01*
Y-96250D01*
X0Y-104000D02*
Y-96250D01*
X-65200Y-75850D02*
Y-62800D01*
Y-75850D02*
X-64950Y-76100D01*
X-5000Y-101493D02*
Y-96500D01*
X-7257Y-103750D02*
X-5000Y-101493D01*
X5000Y-101493D02*
Y-96500D01*
X25473Y-103750D02*
X28116Y-106393D01*
X5000Y-101493D02*
X7257Y-103750D01*
X25473D01*
X-43000Y-81650D02*
Y-72650D01*
X-49500Y-84750D02*
Y-81650D01*
Y-72650D02*
Y-63650D01*
Y-72650D02*
X-43000D01*
Y-63650D01*
X-72700Y-39307D02*
X-70943Y-37550D01*
X-50000Y-40000D02*
Y-37550D01*
X-70943D02*
X-50000D01*
X-72700Y-48293D02*
X-70943Y-50050D01*
X-68850D01*
X-66200Y-52700D01*
Y-61800D02*
X-65200Y-62800D01*
X-66200Y-61800D02*
Y-52700D01*
X-72700Y-48293D02*
Y-39307D01*
X-36500Y-63650D02*
X-35850Y-64300D01*
X-26400D01*
X-24400Y-66300D01*
D36*
X6750Y43250D02*
X8500Y45000D01*
X6750Y37500D02*
Y43250D01*
X1750Y37500D02*
Y43250D01*
X-0Y45000D02*
X1750Y43250D01*
X11750Y37500D02*
Y40980D01*
X8500Y50000D02*
X17600D01*
X11750Y40980D02*
X12397D01*
X17600Y46183D01*
Y50000D01*
D37*
X-35500Y108473D02*
D03*
D38*
X29250Y107000D02*
D03*
D39*
X8750Y99500D02*
D03*
D40*
X-28116Y-106393D02*
D03*
X-40384Y-103106D02*
D03*
X28116Y-106393D02*
D03*
X40384Y-103106D02*
D03*
D41*
X94700Y52800D02*
D03*
X43900Y42640D02*
D03*
Y62960D02*
D03*
D42*
X-5500Y-81500D02*
D03*
X5500D02*
D03*
X53250Y98500D02*
D03*
Y86000D02*
D03*
Y73500D02*
D03*
X77500Y69750D02*
D03*
X64750D02*
D03*
X-91000Y-4250D02*
D03*
X-71250Y49000D02*
D03*
X-52003Y43752D02*
D03*
X-84000Y-34000D02*
D03*
X-104250Y-26500D02*
D03*
X57200Y-55000D02*
D03*
X90800Y-14000D02*
D03*
X55600Y15800D02*
D03*
X9800Y10600D02*
D03*
X89400Y33700D02*
D03*
X65000Y37200D02*
D03*
X88500Y14900D02*
D03*
X92700Y5500D02*
D03*
X7250Y-111250D02*
D03*
X-89200Y-62800D02*
D03*
X92750Y-43650D02*
D03*
X74000Y13800D02*
D03*
X75469Y-8752D02*
D03*
X76000Y-1100D02*
D03*
X32700Y-90300D02*
D03*
X-7700Y-110700D02*
D03*
X47849Y-88551D02*
D03*
X-55200Y35400D02*
D03*
X-46800Y37900D02*
D03*
X18200Y34900D02*
D03*
X-38100Y34000D02*
D03*
X54700Y37300D02*
D03*
X33100Y35200D02*
D03*
X29500Y-6600D02*
D03*
X36300Y54300D02*
D03*
X89400Y25100D02*
D03*
X103500Y32000D02*
D03*
X-43000Y-91250D02*
D03*
X-39000Y-72600D02*
D03*
X-47000D02*
D03*
X84000Y3000D02*
D03*
X-60200Y-52700D02*
D03*
X-64500Y-25500D02*
D03*
X-77200Y-53000D02*
D03*
X-13600Y-19800D02*
D03*
X-24400Y-66300D02*
D03*
X25800Y-62000D02*
D03*
X-91000Y14500D02*
D03*
X-18700Y-26100D02*
D03*
X-18700Y-34300D02*
D03*
X-9700Y-44400D02*
D03*
X-2300Y-56900D02*
D03*
X4600Y-52300D02*
D03*
X10900Y-57000D02*
D03*
X25900Y-51600D02*
D03*
X-10100Y-57900D02*
D03*
X64600Y25400D02*
D03*
X-37400Y10300D02*
D03*
X-36700Y-16200D02*
D03*
X-18400Y-13400D02*
D03*
X-27566Y-2000D02*
D03*
X27800Y40507D02*
D03*
X30750Y68500D02*
D03*
X18250D02*
D03*
X-64500D02*
D03*
X-77000D02*
D03*
X-64500Y81000D02*
D03*
X-5750Y26000D02*
D03*
X-46250Y102000D02*
D03*
X36250Y-71500D02*
D03*
M02*
