G04 Layer_Color=32896*
%FSLAX44Y44*%
%MOMM*%
G71*
G01*
G75*
%ADD56C,0.2500*%
%ADD57C,0.2000*%
%ADD59C,0.1250*%
D56*
X65250Y-41700D02*
G03*
X65250Y-41700I-1250J0D01*
G01*
D57*
X-74550Y-9700D02*
G03*
X-74550Y-9700I-750J0D01*
G01*
X-95225Y64200D02*
X-89225D01*
X-95225Y58200D02*
Y64200D01*
X-95100Y10075D02*
Y16075D01*
Y10075D02*
X-89100D01*
X47600Y-52600D02*
X49600D01*
X47600Y-78600D02*
X49600D01*
X-75800Y-14200D02*
X-74300D01*
X-75800Y-15700D02*
Y-14200D01*
Y-45200D02*
Y-43700D01*
Y-45200D02*
X-74300D01*
X-46300D02*
X-44800D01*
Y-43700D01*
X-46300Y-14200D02*
X-44800D01*
Y-15700D02*
Y-14200D01*
X63750Y-45700D02*
X68000D01*
Y-41450D01*
Y24050D02*
Y28300D01*
X63750D02*
X68000D01*
X-6000D02*
X-1750D01*
X-6000Y24050D02*
Y28300D01*
Y-45700D02*
X-1750D01*
X-6000D02*
Y-41450D01*
X-58125Y-60200D02*
Y-54200D01*
X-52125D01*
X-58125Y-96200D02*
X-52125D01*
X-58125D02*
Y-90200D01*
X-28400Y24700D02*
Y28700D01*
X-21400Y24700D02*
Y28700D01*
X-80700Y-62500D02*
Y-58500D01*
X-73700Y-62500D02*
Y-58500D01*
D59*
X102750Y-43500D02*
Y-37502D01*
X99751D01*
X98751Y-38502D01*
Y-40501D01*
X99751Y-41501D01*
X102750D01*
X100751D02*
X98751Y-43500D01*
X96752Y-38502D02*
X95752Y-37502D01*
X93753D01*
X92753Y-38502D01*
Y-39501D01*
X93753Y-40501D01*
X92753Y-41501D01*
Y-42500D01*
X93753Y-43500D01*
X95752D01*
X96752Y-42500D01*
Y-41501D01*
X95752Y-40501D01*
X96752Y-39501D01*
Y-38502D01*
X95752Y-40501D02*
X93753D01*
X-71250Y24500D02*
X-77248D01*
Y21501D01*
X-76248Y20501D01*
X-74249D01*
X-73249Y21501D01*
Y24500D01*
Y22501D02*
X-71250Y20501D01*
Y14503D02*
Y18502D01*
X-75249Y14503D01*
X-76248D01*
X-77248Y15503D01*
Y17502D01*
X-76248Y18502D01*
Y12504D02*
X-77248Y11504D01*
Y9505D01*
X-76248Y8505D01*
X-72250D01*
X-71250Y9505D01*
Y11504D01*
X-72250Y12504D01*
X-76248D01*
X-61500Y24500D02*
X-67498D01*
Y21501D01*
X-66498Y20501D01*
X-64499D01*
X-63499Y21501D01*
Y24500D01*
Y22501D02*
X-61500Y20501D01*
Y18502D02*
Y16503D01*
Y17502D01*
X-67498D01*
X-66498Y18502D01*
X-62500Y13504D02*
X-61500Y12504D01*
Y10505D01*
X-62500Y9505D01*
X-66498D01*
X-67498Y10505D01*
Y12504D01*
X-66498Y13504D01*
X-65499D01*
X-64499Y12504D01*
Y9505D01*
X-44500Y25000D02*
X-50498D01*
Y22001D01*
X-49498Y21001D01*
X-47499D01*
X-46499Y22001D01*
Y25000D01*
Y23001D02*
X-44500Y21001D01*
Y19002D02*
Y17003D01*
Y18002D01*
X-50498D01*
X-49498Y19002D01*
X-44500Y11005D02*
X-50498D01*
X-47499Y14004D01*
Y10005D01*
X-69749Y52998D02*
X-67749D01*
X-68749D01*
Y48000D01*
X-67749Y47000D01*
X-66750D01*
X-65750Y48000D01*
X-75747Y47000D02*
X-71748D01*
X-75747Y50999D01*
Y51998D01*
X-74747Y52998D01*
X-72748D01*
X-71748Y51998D01*
X54250Y-82502D02*
Y-83502D01*
X52251Y-85501D01*
X50251Y-83502D01*
Y-82502D01*
X52251Y-85501D02*
Y-88500D01*
X48252D02*
X46253D01*
X47252D01*
Y-82502D01*
X48252Y-83502D01*
X-9250Y-4502D02*
Y-9500D01*
X-10250Y-10500D01*
X-12249D01*
X-13249Y-9500D01*
Y-4502D01*
X-15248Y-10500D02*
X-17247D01*
X-16248D01*
Y-4502D01*
X-15248Y-5502D01*
X-9250Y-50500D02*
Y-44502D01*
X-12249D01*
X-13249Y-45502D01*
Y-47501D01*
X-12249Y-48501D01*
X-9250D01*
X-11249D02*
X-13249Y-50500D01*
X-15248D02*
X-17247D01*
X-16248D01*
Y-44502D01*
X-15248Y-45502D01*
X-24245Y-44502D02*
X-20246D01*
Y-47501D01*
X-22246Y-46501D01*
X-23245D01*
X-24245Y-47501D01*
Y-49500D01*
X-23245Y-50500D01*
X-21246D01*
X-20246Y-49500D01*
X-109250Y24500D02*
X-115248D01*
Y21501D01*
X-114248Y20501D01*
X-112249D01*
X-111249Y21501D01*
Y24500D01*
Y22501D02*
X-109250Y20501D01*
Y18502D02*
Y16503D01*
Y17502D01*
X-115248D01*
X-114248Y18502D01*
Y13504D02*
X-115248Y12504D01*
Y10505D01*
X-114248Y9505D01*
X-113249D01*
X-112249Y10505D01*
Y11504D01*
Y10505D01*
X-111249Y9505D01*
X-110250D01*
X-109250Y10505D01*
Y12504D01*
X-110250Y13504D01*
X-87500Y-57750D02*
Y-51752D01*
X-90499D01*
X-91499Y-52752D01*
Y-54751D01*
X-90499Y-55751D01*
X-87500D01*
X-89499D02*
X-91499Y-57750D01*
X-93498D02*
X-95497D01*
X-94498D01*
Y-51752D01*
X-93498Y-52752D01*
X-102495Y-57750D02*
X-98496D01*
X-102495Y-53751D01*
Y-52752D01*
X-101496Y-51752D01*
X-99496D01*
X-98496Y-52752D01*
X110500Y29000D02*
Y34998D01*
X107501D01*
X106501Y33998D01*
Y31999D01*
X107501Y30999D01*
X110500D01*
X108501D02*
X106501Y29000D01*
X104502D02*
X102503D01*
X103502D01*
Y34998D01*
X104502Y33998D01*
X99504D02*
X98504Y34998D01*
X96505D01*
X95505Y33998D01*
Y30000D01*
X96505Y29000D01*
X98504D01*
X99504Y30000D01*
Y33998D01*
X80250Y-750D02*
X74252D01*
Y-3749D01*
X75252Y-4749D01*
X77251D01*
X78251Y-3749D01*
Y-750D01*
Y-2749D02*
X80250Y-4749D01*
Y-9747D02*
X74252D01*
X77251Y-6748D01*
Y-10747D01*
X84250Y52000D02*
X78252D01*
Y49001D01*
X79252Y48001D01*
X81251D01*
X82251Y49001D01*
Y52000D01*
Y50001D02*
X84250Y48001D01*
X79252Y46002D02*
X78252Y45002D01*
Y43003D01*
X79252Y42003D01*
X80251D01*
X81251Y43003D01*
Y44003D01*
Y43003D01*
X82251Y42003D01*
X83250D01*
X84250Y43003D01*
Y45002D01*
X83250Y46002D01*
X75750Y51500D02*
X69752D01*
Y48501D01*
X70752Y47501D01*
X72751D01*
X73751Y48501D01*
Y51500D01*
Y49501D02*
X75750Y47501D01*
Y45502D02*
Y43503D01*
Y44502D01*
X69752D01*
X70752Y45502D01*
X-30749Y-71002D02*
X-28749D01*
X-29749D01*
Y-76000D01*
X-28749Y-77000D01*
X-27750D01*
X-26750Y-76000D01*
X-32748Y-77000D02*
X-34747D01*
X-33748D01*
Y-71002D01*
X-32748Y-72002D01*
X-68998Y-59499D02*
X-69998Y-58499D01*
Y-56500D01*
X-68998Y-55500D01*
X-65000D01*
X-64000Y-56500D01*
Y-58499D01*
X-65000Y-59499D01*
X-64000Y-61498D02*
Y-63497D01*
Y-62498D01*
X-69998D01*
X-68998Y-61498D01*
X-69998Y-70495D02*
X-68998Y-68496D01*
X-66999Y-66496D01*
X-65000D01*
X-64000Y-67496D01*
Y-69495D01*
X-65000Y-70495D01*
X-65999D01*
X-66999Y-69495D01*
Y-66496D01*
X-32248Y-28499D02*
X-33248Y-27499D01*
Y-25500D01*
X-32248Y-24500D01*
X-28250D01*
X-27250Y-25500D01*
Y-27499D01*
X-28250Y-28499D01*
X-27250Y-30498D02*
Y-32497D01*
Y-31498D01*
X-33248D01*
X-32248Y-30498D01*
X-27250Y-38496D02*
X-33248D01*
X-30249Y-35496D01*
Y-39495D01*
X20998Y-74249D02*
X21998Y-73249D01*
Y-71250D01*
X20998Y-70250D01*
X17000D01*
X16000Y-71250D01*
Y-73249D01*
X17000Y-74249D01*
X20998Y-76248D02*
X21998Y-77248D01*
Y-79247D01*
X20998Y-80247D01*
X19999D01*
X18999Y-79247D01*
X17999Y-80247D01*
X17000D01*
X16000Y-79247D01*
Y-77248D01*
X17000Y-76248D01*
X17999D01*
X18999Y-77248D01*
X19999Y-76248D01*
X20998D01*
X18999Y-77248D02*
Y-79247D01*
X79002Y-65999D02*
X78002Y-64999D01*
Y-63000D01*
X79002Y-62000D01*
X83000D01*
X84000Y-63000D01*
Y-64999D01*
X83000Y-65999D01*
X78002Y-67998D02*
Y-71997D01*
X79002D01*
X83000Y-67998D01*
X84000D01*
X-14998Y43001D02*
X-15998Y44001D01*
Y46000D01*
X-14998Y47000D01*
X-11000D01*
X-10000Y46000D01*
Y44001D01*
X-11000Y43001D01*
X-15998Y37003D02*
Y41002D01*
X-12999D01*
X-13999Y39003D01*
Y38003D01*
X-12999Y37003D01*
X-11000D01*
X-10000Y38003D01*
Y40002D01*
X-11000Y41002D01*
X81502Y-45249D02*
X80502Y-44249D01*
Y-42250D01*
X81502Y-41250D01*
X85500D01*
X86500Y-42250D01*
Y-44249D01*
X85500Y-45249D01*
X86500Y-50247D02*
X80502D01*
X83501Y-47248D01*
Y-51247D01*
X-26498Y47001D02*
X-27498Y48001D01*
Y50000D01*
X-26498Y51000D01*
X-22500D01*
X-21500Y50000D01*
Y48001D01*
X-22500Y47001D01*
X-26498Y45002D02*
X-27498Y44002D01*
Y42003D01*
X-26498Y41003D01*
X-25499D01*
X-24499Y42003D01*
Y43003D01*
Y42003D01*
X-23499Y41003D01*
X-22500D01*
X-21500Y42003D01*
Y44002D01*
X-22500Y45002D01*
X9002Y-57499D02*
X8002Y-56499D01*
Y-54500D01*
X9002Y-53500D01*
X13000D01*
X14000Y-54500D01*
Y-56499D01*
X13000Y-57499D01*
X14000Y-59498D02*
Y-61497D01*
Y-60498D01*
X8002D01*
X9002Y-59498D01*
X-30500Y-13252D02*
Y-18250D01*
X-31500Y-19250D01*
X-33499D01*
X-34499Y-18250D01*
Y-13252D01*
X-40497D02*
X-36498D01*
Y-16251D01*
X-38497Y-15251D01*
X-39497D01*
X-40497Y-16251D01*
Y-18250D01*
X-39497Y-19250D01*
X-37498D01*
X-36498Y-18250D01*
X96751Y-17200D02*
Y-13202D01*
X97751Y-12202D01*
X99750D01*
X100750Y-13202D01*
Y-17200D01*
X99750Y-18200D01*
X97751D01*
X98751Y-16201D02*
X96751Y-18200D01*
X97751D02*
X96751Y-17200D01*
X94752Y-18200D02*
X92753D01*
X93752D01*
Y-12202D01*
X94752Y-13202D01*
X98501Y2050D02*
Y6048D01*
X99501Y7048D01*
X101500D01*
X102500Y6048D01*
Y2050D01*
X101500Y1050D01*
X99501D01*
X100501Y3049D02*
X98501Y1050D01*
X99501D02*
X98501Y2050D01*
X92503Y1050D02*
X96502D01*
X92503Y5049D01*
Y6048D01*
X93503Y7048D01*
X95502D01*
X96502Y6048D01*
X-91399Y-28400D02*
Y-24402D01*
X-90399Y-23402D01*
X-88400D01*
X-87400Y-24402D01*
Y-28400D01*
X-88400Y-29400D01*
X-90399D01*
X-89399Y-27401D02*
X-91399Y-29400D01*
X-90399D02*
X-91399Y-28400D01*
X-93398Y-24402D02*
X-94398Y-23402D01*
X-96397D01*
X-97397Y-24402D01*
Y-25401D01*
X-96397Y-26401D01*
X-95397D01*
X-96397D01*
X-97397Y-27401D01*
Y-28400D01*
X-96397Y-29400D01*
X-94398D01*
X-93398Y-28400D01*
X-91999Y-9000D02*
Y-5002D01*
X-90999Y-4002D01*
X-89000D01*
X-88000Y-5002D01*
Y-9000D01*
X-89000Y-10000D01*
X-90999D01*
X-89999Y-8001D02*
X-91999Y-10000D01*
X-90999D02*
X-91999Y-9000D01*
X-96997Y-10000D02*
Y-4002D01*
X-93998Y-7001D01*
X-97997D01*
M02*
