G04 Layer_Physical_Order=3*
G04 Layer_Color=128*
%FSLAX44Y44*%
%MOMM*%
G71*
G01*
G75*
%ADD43C,1.0160*%
%ADD44C,1.5000*%
%ADD45C,2.0000*%
G04:AMPARAMS|DCode=46|XSize=1.4mm|YSize=1.4mm|CornerRadius=0mm|HoleSize=0mm|Usage=FLASHONLY|Rotation=0.000|XOffset=0mm|YOffset=0mm|HoleType=Round|Shape=Relief|Width=0.15mm|Gap=0.15mm|Entries=4|*
%AMTHD46*
7,0,0,1.4000,1.1000,0.1500,45*
%
%ADD46THD46*%
%ADD47C,1.3000*%
G36*
X-47300Y33800D02*
X-47300Y13250D01*
X-76000Y13250D01*
X-76000Y30200D01*
X-95800Y30200D01*
X-95800Y63000D01*
X-76500Y63000D01*
X-47300Y33800D01*
D02*
G37*
G36*
X45750Y122114D02*
X45750Y76000D01*
X-34250Y76000D01*
X-34250Y122114D01*
X45750Y122114D01*
D02*
G37*
D43*
X-119699Y-8480D02*
G03*
X-119699Y8480I-5301J8480D01*
G01*
X119700Y8475D02*
G03*
X-119700Y8475I-119700J-8475D01*
G01*
X119699Y8480D02*
G03*
X119699Y-8480I5301J-8480D01*
G01*
X-119700Y-8475D02*
G03*
X119700Y-8475I119700J8475D01*
G01*
X119699Y-8480D02*
X119700Y-8475D01*
X119699Y8480D02*
X119700Y8475D01*
X-119700D02*
X-119699Y8480D01*
D44*
X-28116Y-106393D02*
D03*
X-40384Y-103106D02*
D03*
X28116Y-106393D02*
D03*
X40384Y-103106D02*
D03*
D45*
X94700Y52800D02*
D03*
X43900Y42640D02*
D03*
Y62960D02*
D03*
D46*
X77500Y69750D02*
D03*
X-104250Y-26500D02*
D03*
X90800Y-14000D02*
D03*
X7250Y-111250D02*
D03*
X92750Y-43650D02*
D03*
X-46800Y37900D02*
D03*
X103500Y32000D02*
D03*
X-60200Y-52700D02*
D03*
X-24400Y-66300D02*
D03*
X25800Y-62000D02*
D03*
X-9700Y-44400D02*
D03*
X-36700Y-16200D02*
D03*
X27800Y40507D02*
D03*
D47*
X-5500Y-81500D02*
D03*
X5500D02*
D03*
X53250Y98500D02*
D03*
Y86000D02*
D03*
Y73500D02*
D03*
X64750Y69750D02*
D03*
X-91000Y-4250D02*
D03*
X-71250Y49000D02*
D03*
X-52003Y43752D02*
D03*
X-84000Y-34000D02*
D03*
X57200Y-55000D02*
D03*
X55600Y15800D02*
D03*
X9800Y10600D02*
D03*
X89400Y33700D02*
D03*
X65000Y37200D02*
D03*
X88500Y14900D02*
D03*
X92700Y5500D02*
D03*
X-89200Y-62800D02*
D03*
X74000Y13800D02*
D03*
X75469Y-8752D02*
D03*
X76000Y-1100D02*
D03*
X32700Y-90300D02*
D03*
X-7700Y-110700D02*
D03*
X47849Y-88551D02*
D03*
X-55200Y35400D02*
D03*
X18200Y34900D02*
D03*
X-38100Y34000D02*
D03*
X54700Y37300D02*
D03*
X33100Y35200D02*
D03*
X29500Y-6600D02*
D03*
X36300Y54300D02*
D03*
X89400Y25100D02*
D03*
X-43000Y-91250D02*
D03*
X-39000Y-72600D02*
D03*
X-47000D02*
D03*
X84000Y3000D02*
D03*
X-64500Y-25500D02*
D03*
X-77200Y-53000D02*
D03*
X-13600Y-19800D02*
D03*
X-91000Y14500D02*
D03*
X-18700Y-26100D02*
D03*
X-18700Y-34300D02*
D03*
X-2300Y-56900D02*
D03*
X4600Y-52300D02*
D03*
X10900Y-57000D02*
D03*
X25900Y-51600D02*
D03*
X-10100Y-57900D02*
D03*
X64600Y25400D02*
D03*
X-37400Y10300D02*
D03*
X-18400Y-13400D02*
D03*
X-27566Y-2000D02*
D03*
X30750Y68500D02*
D03*
X18250D02*
D03*
X-64500D02*
D03*
X-77000D02*
D03*
X-64500Y81000D02*
D03*
X-5750Y26000D02*
D03*
X-46250Y102000D02*
D03*
X36250Y-71500D02*
D03*
M02*
