G04 Layer_Color=128*
%FSLAX44Y44*%
%MOMM*%
G71*
G01*
G75*
%ADD10R,0.6000X0.5000*%
%ADD11R,0.5000X0.6000*%
%ADD12O,0.2000X0.6500*%
%ADD13O,0.6500X0.2000*%
%ADD29R,0.9000X0.7000*%
%ADD48R,0.8000X0.7000*%
%ADD49R,0.8500X0.6000*%
%ADD50R,1.4000X1.1500*%
%ADD51R,1.5500X1.5500*%
%ADD52O,0.2500X0.7000*%
%ADD53O,0.7000X0.2500*%
%ADD54R,5.6000X5.6000*%
%ADD55R,0.6000X0.7000*%
D10*
X88000Y-32800D02*
D03*
X98000D02*
D03*
X-29500Y-48100D02*
D03*
X-39500D02*
D03*
X-89300Y-46600D02*
D03*
X-99300D02*
D03*
X98000Y23800D02*
D03*
X108000D02*
D03*
D11*
X-60300Y-6000D02*
D03*
Y4000D02*
D03*
X-68300Y-6000D02*
D03*
Y4000D02*
D03*
X-52300Y-6000D02*
D03*
Y4000D02*
D03*
X77700Y-26500D02*
D03*
Y-16500D02*
D03*
X80900Y24900D02*
D03*
Y34900D02*
D03*
X-105000Y23800D02*
D03*
Y33800D02*
D03*
X72800Y24900D02*
D03*
Y34900D02*
D03*
X25600Y-80500D02*
D03*
Y-70500D02*
D03*
X72500Y-63600D02*
D03*
Y-73600D02*
D03*
X-14850Y28750D02*
D03*
Y18750D02*
D03*
X76100Y-48400D02*
D03*
Y-38400D02*
D03*
X-38000Y-27000D02*
D03*
Y-37000D02*
D03*
X18300Y-62100D02*
D03*
Y-52100D02*
D03*
D12*
X-69300Y-14950D02*
D03*
X-64800D02*
D03*
X-60300D02*
D03*
X-55800D02*
D03*
X-51300D02*
D03*
Y-44450D02*
D03*
X-55800D02*
D03*
X-60300D02*
D03*
X-64800D02*
D03*
X-69300D02*
D03*
D13*
X-45550Y-20700D02*
D03*
Y-25200D02*
D03*
Y-29700D02*
D03*
Y-34200D02*
D03*
Y-38700D02*
D03*
X-75050D02*
D03*
Y-34200D02*
D03*
Y-29700D02*
D03*
Y-25200D02*
D03*
Y-20700D02*
D03*
D29*
X-24900Y34200D02*
D03*
Y19200D02*
D03*
X-77200Y-53000D02*
D03*
Y-68000D02*
D03*
D48*
X-56100Y61200D02*
D03*
Y13200D02*
D03*
X-19125Y-92700D02*
D03*
Y-57700D02*
D03*
D49*
X-93975Y49200D02*
D03*
Y37200D02*
D03*
Y25200D02*
D03*
X-56875Y-69200D02*
D03*
Y-81200D02*
D03*
D50*
X59600Y-73600D02*
D03*
X37600D02*
D03*
Y-57600D02*
D03*
X59600Y-57600D02*
D03*
D51*
X-60300Y-29700D02*
D03*
D52*
X58500Y-43200D02*
D03*
X53500D02*
D03*
X48500D02*
D03*
X43500D02*
D03*
X38500D02*
D03*
X33500D02*
D03*
X28500D02*
D03*
X23500D02*
D03*
X18500D02*
D03*
X13500D02*
D03*
X8500D02*
D03*
X3500D02*
D03*
Y25800D02*
D03*
X8500D02*
D03*
X13500D02*
D03*
X18500D02*
D03*
X23500D02*
D03*
X28500D02*
D03*
X33500D02*
D03*
X38500D02*
D03*
X43500D02*
D03*
X48500D02*
D03*
X53500D02*
D03*
X58500D02*
D03*
D53*
X-3500Y-36200D02*
D03*
Y-31200D02*
D03*
Y-26200D02*
D03*
Y-21200D02*
D03*
Y-16200D02*
D03*
Y-11200D02*
D03*
Y-6200D02*
D03*
Y-1200D02*
D03*
Y3800D02*
D03*
Y8800D02*
D03*
Y13800D02*
D03*
Y18800D02*
D03*
X65500D02*
D03*
Y13800D02*
D03*
Y8800D02*
D03*
Y3800D02*
D03*
Y-1200D02*
D03*
Y-6200D02*
D03*
Y-11200D02*
D03*
Y-16200D02*
D03*
Y-21200D02*
D03*
Y-26200D02*
D03*
Y-31200D02*
D03*
Y-36200D02*
D03*
D54*
X31000Y-8700D02*
D03*
D55*
X-93000Y-17000D02*
D03*
X-83500Y3000D02*
D03*
X-102500D02*
D03*
X-93000Y-36900D02*
D03*
X-83500Y-16900D02*
D03*
X-102500D02*
D03*
X98000Y-5200D02*
D03*
X107500Y14800D02*
D03*
X88500D02*
D03*
X98000Y-25200D02*
D03*
X107500Y-5200D02*
D03*
X88500D02*
D03*
M02*
