G04 Layer_Physical_Order=4*
G04 Layer_Color=16711680*
%FSLAX44Y44*%
%MOMM*%
G71*
G01*
G75*
%ADD10R,0.6000X0.5000*%
%ADD11R,0.5000X0.6000*%
%ADD12O,0.2000X0.6500*%
%ADD13O,0.6500X0.2000*%
%ADD29R,0.9000X0.7000*%
%ADD34C,0.1500*%
%ADD35C,0.3000*%
%ADD40C,0.9000*%
%ADD41C,1.0000*%
%ADD42C,0.6000*%
%ADD48R,0.8000X0.7000*%
%ADD49R,0.8500X0.6000*%
%ADD50R,1.4000X1.1500*%
%ADD51R,1.5500X1.5500*%
%ADD52O,0.2500X0.7000*%
%ADD53O,0.7000X0.2500*%
%ADD54R,5.6000X5.6000*%
%ADD55R,0.6000X0.7000*%
G36*
X-34250Y113756D02*
X-34250Y76000D01*
X45750Y76000D01*
X45750Y109587D01*
X46997Y110420D01*
X50763Y108861D01*
X60057Y104022D01*
X68895Y98392D01*
X77208Y92013D01*
X84934Y84934D01*
X92013Y77208D01*
X98392Y68895D01*
X104022Y60057D01*
X108861Y50763D01*
X112871Y41082D01*
X116021Y31088D01*
X118289Y20858D01*
X119657Y10469D01*
X119681Y9925D01*
X119675Y8519D01*
X117868Y7132D01*
X116265Y5043D01*
X115257Y2610D01*
X114914Y0D01*
X115257Y-2610D01*
X116265Y-5043D01*
X117868Y-7132D01*
X119675Y-8519D01*
X119681Y-9919D01*
X119657Y-10469D01*
X118289Y-20858D01*
X116021Y-31088D01*
X112871Y-41082D01*
X108861Y-50763D01*
X104022Y-60057D01*
X98392Y-68895D01*
X92013Y-77208D01*
X84934Y-84934D01*
X77208Y-92013D01*
X68895Y-98392D01*
X60057Y-104022D01*
X50763Y-108861D01*
X41082Y-112871D01*
X31088Y-116021D01*
X20858Y-118289D01*
X10469Y-119657D01*
X0Y-120114D01*
X-10469Y-119657D01*
X-20858Y-118289D01*
X-31088Y-116021D01*
X-41082Y-112871D01*
X-50763Y-108861D01*
X-60057Y-104022D01*
X-68895Y-98392D01*
X-77208Y-92013D01*
X-84934Y-84934D01*
X-92013Y-77208D01*
X-98392Y-68895D01*
X-104022Y-60057D01*
X-108861Y-50763D01*
X-112871Y-41082D01*
X-116021Y-31088D01*
X-118289Y-20858D01*
X-119657Y-10469D01*
X-119682Y-9900D01*
X-119676Y-8514D01*
X-119676D01*
X-119676Y-8514D01*
X-117869Y-7128D01*
X-116266Y-5039D01*
X-115259Y-2607D01*
X-114915Y3D01*
X-115259Y2612D01*
X-116266Y5044D01*
X-117869Y7133D01*
X-119675Y8519D01*
X-119681Y9918D01*
X-119657Y10469D01*
X-118289Y20858D01*
X-116021Y31088D01*
X-112871Y41082D01*
X-108861Y50763D01*
X-104022Y60057D01*
X-98392Y68895D01*
X-92013Y77208D01*
X-84934Y84934D01*
X-77208Y92013D01*
X-68895Y98392D01*
X-60057Y104022D01*
X-50763Y108861D01*
X-41082Y112871D01*
X-35460Y114643D01*
X-34250Y113756D01*
D02*
G37*
%LPC*%
G36*
X17500Y67750D02*
X13811D01*
X14011Y66744D01*
X15006Y65256D01*
X16494Y64261D01*
X17500Y64061D01*
Y67750D01*
D02*
G37*
G36*
X22689D02*
X19000D01*
Y64061D01*
X20006Y64261D01*
X21494Y65256D01*
X22489Y66744D01*
X22689Y67750D01*
D02*
G37*
G36*
X-65250D02*
X-68939D01*
X-68739Y66744D01*
X-67744Y65256D01*
X-66256Y64261D01*
X-65250Y64061D01*
Y67750D01*
D02*
G37*
G36*
X-77750D02*
X-81439D01*
X-81239Y66744D01*
X-80244Y65256D01*
X-78756Y64261D01*
X-77750Y64061D01*
Y67750D01*
D02*
G37*
G36*
X-72561D02*
X-76250D01*
Y64061D01*
X-75244Y64261D01*
X-73756Y65256D01*
X-72761Y66744D01*
X-72561Y67750D01*
D02*
G37*
G36*
X30000D02*
X26311D01*
X26511Y66744D01*
X27506Y65256D01*
X28994Y64261D01*
X30000Y64061D01*
Y67750D01*
D02*
G37*
G36*
X57689Y72750D02*
X54000D01*
Y69061D01*
X55006Y69261D01*
X56494Y70256D01*
X57489Y71744D01*
X57689Y72750D01*
D02*
G37*
G36*
X-77750Y72939D02*
X-78756Y72739D01*
X-80244Y71744D01*
X-81239Y70256D01*
X-81439Y69250D01*
X-77750D01*
Y72939D01*
D02*
G37*
G36*
X52500Y72750D02*
X48811D01*
X49011Y71744D01*
X50006Y70256D01*
X51494Y69261D01*
X52500Y69061D01*
Y72750D01*
D02*
G37*
G36*
X35189Y67750D02*
X31500D01*
Y64061D01*
X32506Y64261D01*
X33994Y65256D01*
X34989Y66744D01*
X35189Y67750D01*
D02*
G37*
G36*
X77500Y74338D02*
X75744Y73989D01*
X74256Y72994D01*
X73261Y71506D01*
X72912Y69750D01*
X73261Y67994D01*
X74256Y66506D01*
X75744Y65511D01*
X77500Y65162D01*
X79256Y65511D01*
X80744Y66506D01*
X81739Y67994D01*
X82088Y69750D01*
X81739Y71506D01*
X80744Y72994D01*
X79256Y73989D01*
X77500Y74338D01*
D02*
G37*
G36*
X64750D02*
X62994Y73989D01*
X61506Y72994D01*
X60511Y71506D01*
X60162Y69750D01*
X60511Y67994D01*
X61506Y66506D01*
X62706Y65704D01*
Y41079D01*
X61756Y40444D01*
X60761Y38956D01*
X60625Y38270D01*
X59095D01*
X58939Y39056D01*
X57944Y40544D01*
X56456Y41539D01*
X54700Y41888D01*
X52944Y41539D01*
X51695Y40704D01*
X50764Y41078D01*
X50298Y41437D01*
X50456Y42640D01*
X50233Y44337D01*
X49578Y45918D01*
X48536Y47276D01*
X47178Y48318D01*
X45597Y48973D01*
X43900Y49196D01*
X42203Y48973D01*
X40622Y48318D01*
X39944Y47797D01*
X38444Y48537D01*
Y50321D01*
X39544Y51056D01*
X40539Y52544D01*
X40888Y54300D01*
X40617Y55661D01*
X41442Y56581D01*
X41805Y56792D01*
X42203Y56627D01*
X43900Y56404D01*
X45597Y56627D01*
X47178Y57282D01*
X48536Y58324D01*
X49578Y59682D01*
X50233Y61263D01*
X50456Y62960D01*
X50233Y64657D01*
X49578Y66238D01*
X48536Y67596D01*
X47178Y68638D01*
X45597Y69293D01*
X43900Y69516D01*
X42203Y69293D01*
X40622Y68638D01*
X39264Y67596D01*
X38222Y66238D01*
X37567Y64657D01*
X37344Y62960D01*
X37567Y61263D01*
X38063Y60067D01*
X37465Y59068D01*
X37056Y58738D01*
X36300Y58888D01*
X34544Y58539D01*
X33056Y57544D01*
X32061Y56056D01*
X31712Y54300D01*
X32061Y52544D01*
X33056Y51056D01*
X33856Y50521D01*
Y40816D01*
X32356Y40668D01*
X32039Y42262D01*
X31044Y43751D01*
X29556Y44745D01*
X27800Y45095D01*
X26044Y44745D01*
X24556Y43751D01*
X23561Y42262D01*
X23212Y40507D01*
X23561Y38751D01*
X23616Y38669D01*
X22721Y37308D01*
X21903Y37457D01*
X21444Y38144D01*
X19956Y39139D01*
X18200Y39488D01*
X16444Y39139D01*
X14956Y38144D01*
X13961Y36656D01*
X13612Y34900D01*
X13961Y33144D01*
X14618Y32161D01*
X13730Y30808D01*
X13500Y30854D01*
X12427Y30640D01*
X12259Y30528D01*
X12169Y30523D01*
X10648Y31175D01*
X10619Y31321D01*
X10122Y32065D01*
X-2535Y44722D01*
X-3280Y45219D01*
X-4157Y45394D01*
X-26107D01*
X-29087Y48374D01*
X-29832Y48872D01*
X-30710Y49046D01*
X-46627D01*
X-48205Y50624D01*
X-48950Y51122D01*
X-49827Y51296D01*
X-67372D01*
X-68006Y52244D01*
X-69494Y53239D01*
X-71250Y53588D01*
X-73006Y53239D01*
X-74494Y52244D01*
X-74830Y51742D01*
X-76746Y51537D01*
X-78554Y53345D01*
X-80456Y54616D01*
X-82700Y55063D01*
X-84725D01*
Y57200D01*
X-103225D01*
Y41200D01*
Y38300D01*
X-109000D01*
Y32544D01*
X-111372Y30172D01*
X-111869Y29428D01*
X-112044Y28550D01*
Y19868D01*
X-111869Y18990D01*
X-111372Y18246D01*
X-110294Y17168D01*
Y12375D01*
X-112372Y10297D01*
X-112869Y9553D01*
X-113044Y8675D01*
Y-2675D01*
X-112869Y-3553D01*
X-112372Y-4297D01*
X-110044Y-6625D01*
Y-23950D01*
X-109869Y-24828D01*
X-109372Y-25572D01*
X-108773Y-26172D01*
X-108838Y-26500D01*
X-108489Y-28256D01*
X-107494Y-29744D01*
X-106006Y-30739D01*
X-104250Y-31088D01*
X-104094Y-31216D01*
Y-36500D01*
X-103919Y-37378D01*
X-103422Y-38122D01*
X-101594Y-39950D01*
Y-42600D01*
X-103800D01*
Y-50600D01*
X-94800D01*
Y-50600D01*
X-93800D01*
Y-50600D01*
X-91594D01*
Y-52082D01*
X-91419Y-52960D01*
X-90922Y-53704D01*
X-87632Y-56994D01*
X-88371Y-58377D01*
X-89200Y-58212D01*
X-90956Y-58561D01*
X-92444Y-59556D01*
X-93439Y-61044D01*
X-93788Y-62800D01*
X-93439Y-64556D01*
X-92444Y-66044D01*
X-90956Y-67039D01*
X-89200Y-67388D01*
X-88981Y-67345D01*
X-86163Y-70163D01*
X-86163Y-70163D01*
X-85170Y-70826D01*
X-84000Y-71059D01*
X-83200D01*
Y-73000D01*
X-71200D01*
X-71200Y-73000D01*
Y-73000D01*
X-69759Y-73142D01*
Y-83400D01*
X-69759Y-83400D01*
X-69526Y-84571D01*
X-68863Y-85563D01*
X-61013Y-93413D01*
X-61013Y-93413D01*
X-60020Y-94076D01*
X-58850Y-94309D01*
X-46368D01*
X-46244Y-94494D01*
X-44756Y-95489D01*
X-43000Y-95838D01*
X-41244Y-95489D01*
X-39756Y-94494D01*
X-39121Y-93544D01*
X-32207D01*
X-26787Y-98965D01*
X-27448Y-100424D01*
X-28915Y-100328D01*
X-31175Y-101096D01*
X-32831Y-102548D01*
X-33626Y-102420D01*
X-34378Y-102133D01*
X-35086Y-100048D01*
X-36660Y-98253D01*
X-38800Y-97197D01*
X-41182Y-97041D01*
X-43442Y-97809D01*
X-45237Y-99382D01*
X-46293Y-101523D01*
X-46449Y-103905D01*
X-45682Y-106165D01*
X-44108Y-107960D01*
X-41967Y-109016D01*
X-39585Y-109172D01*
X-37325Y-108404D01*
X-35669Y-106952D01*
X-34874Y-107080D01*
X-34122Y-107367D01*
X-33414Y-109452D01*
X-31841Y-111247D01*
X-29700Y-112303D01*
X-27318Y-112459D01*
X-25058Y-111691D01*
X-23263Y-110118D01*
X-22207Y-107977D01*
X-22051Y-105595D01*
X-22819Y-103335D01*
X-23775Y-102244D01*
X-23095Y-100744D01*
X23095D01*
X23775Y-102244D01*
X22819Y-103335D01*
X22051Y-105595D01*
X22207Y-107977D01*
X23263Y-110118D01*
X25058Y-111691D01*
X27318Y-112459D01*
X29700Y-112303D01*
X31841Y-111247D01*
X33414Y-109452D01*
X34122Y-107367D01*
X34874Y-107080D01*
X35669Y-106952D01*
X37325Y-108404D01*
X39585Y-109172D01*
X41967Y-109016D01*
X44108Y-107960D01*
X45682Y-106165D01*
X46449Y-103905D01*
X46293Y-101523D01*
X45237Y-99382D01*
X43442Y-97809D01*
X42814Y-97595D01*
X43062Y-96095D01*
X50023D01*
X50901Y-95921D01*
X51645Y-95423D01*
X54721Y-92348D01*
X55218Y-91604D01*
X55393Y-90726D01*
Y-87151D01*
X58550Y-83994D01*
X73082D01*
X73960Y-83819D01*
X74704Y-83322D01*
X79022Y-79004D01*
X79519Y-78260D01*
X79548Y-78114D01*
X79694Y-77382D01*
X79694Y-77382D01*
Y-58600D01*
X79519Y-57722D01*
X79022Y-56978D01*
X76330Y-54286D01*
X76904Y-52900D01*
X80100D01*
Y-49150D01*
X76100D01*
Y-47650D01*
X80100D01*
Y-43900D01*
X80100D01*
Y-42900D01*
X80100D01*
Y-40794D01*
X86650D01*
X88385Y-42529D01*
X88162Y-43650D01*
X88511Y-45406D01*
X89506Y-46894D01*
X90994Y-47889D01*
X92750Y-48238D01*
X94506Y-47889D01*
X95994Y-46894D01*
X96989Y-45406D01*
X97338Y-43650D01*
X97115Y-42529D01*
X99622Y-40022D01*
X100119Y-39278D01*
X100294Y-38400D01*
Y-36800D01*
X102500D01*
Y-30200D01*
Y-20200D01*
X93500D01*
Y-22906D01*
X91400D01*
X90522Y-23081D01*
X89778Y-23578D01*
X86378Y-26978D01*
X85881Y-27722D01*
X85706Y-28600D01*
Y-28800D01*
X83500D01*
Y-30506D01*
X81700D01*
Y-27250D01*
X77700D01*
Y-25750D01*
X81700D01*
Y-22000D01*
X81700D01*
Y-21000D01*
X81700D01*
Y-12000D01*
X80515D01*
X79708Y-10508D01*
X80057Y-8752D01*
X79708Y-6996D01*
X79173Y-6196D01*
X79244Y-4344D01*
X80239Y-2856D01*
X80441Y-1838D01*
X81982Y-1080D01*
X82005Y-1079D01*
X82244Y-1239D01*
X84000Y-1588D01*
X84000Y-1588D01*
Y-10200D01*
X86123D01*
X86925Y-11700D01*
X86561Y-12244D01*
X86212Y-14000D01*
X86561Y-15756D01*
X87556Y-17244D01*
X89044Y-18239D01*
X90800Y-18588D01*
X92556Y-18239D01*
X94044Y-17244D01*
X95039Y-15756D01*
X95388Y-14000D01*
X95039Y-12244D01*
X94675Y-11700D01*
X95477Y-10200D01*
X101500D01*
X102500Y-10200D01*
X103489Y-10200D01*
X104000Y-10200D01*
X106750D01*
Y-5200D01*
Y-200D01*
X104000D01*
X103000Y-200D01*
X102011Y-200D01*
X101794Y-200D01*
X100294Y510D01*
Y19090D01*
X101106Y19474D01*
X102848Y18900D01*
X103000Y18507D01*
X103000Y18507D01*
Y18507D01*
Y15550D01*
X112000D01*
Y18300D01*
Y18507D01*
X112500Y19800D01*
Y20501D01*
X112500Y21093D01*
Y27800D01*
X110294D01*
Y28600D01*
X110119Y29478D01*
X109622Y30222D01*
X108048Y31797D01*
X108088Y32000D01*
X107739Y33756D01*
X106744Y35244D01*
X105256Y36239D01*
X103500Y36588D01*
X101744Y36239D01*
X100256Y35244D01*
X99261Y33756D01*
X98912Y32000D01*
X99261Y30244D01*
X99892Y29300D01*
X99192Y27800D01*
X93500D01*
X93500Y27800D01*
X92414Y28500D01*
Y30302D01*
X92644Y30456D01*
X93639Y31944D01*
X93988Y33700D01*
X93639Y35456D01*
X92644Y36944D01*
X91694Y37579D01*
Y38600D01*
X91519Y39478D01*
X91022Y40222D01*
X89472Y41772D01*
X88728Y42269D01*
X87850Y42444D01*
X74350D01*
X74350Y42444D01*
X73618Y42298D01*
X73472Y42269D01*
X72728Y41772D01*
X72728Y41772D01*
X71178Y40222D01*
X70681Y39478D01*
X70665Y39400D01*
X68942D01*
X68244Y40444D01*
X67294Y41079D01*
Y66038D01*
X67994Y66506D01*
X68989Y67994D01*
X69338Y69750D01*
X68989Y71506D01*
X67994Y72994D01*
X66506Y73989D01*
X64750Y74338D01*
D02*
G37*
G36*
X-8450Y-106261D02*
X-9456Y-106461D01*
X-10944Y-107456D01*
X-11939Y-108944D01*
X-12139Y-109950D01*
X-8450D01*
Y-106261D01*
D02*
G37*
G36*
X-6950D02*
Y-109950D01*
X-3261D01*
X-3461Y-108944D01*
X-4456Y-107456D01*
X-5944Y-106461D01*
X-6950Y-106261D01*
D02*
G37*
G36*
X-3261Y-111450D02*
X-6950D01*
Y-115139D01*
X-5944Y-114939D01*
X-4456Y-113944D01*
X-3461Y-112456D01*
X-3261Y-111450D01*
D02*
G37*
G36*
X7250Y-106662D02*
X5494Y-107011D01*
X4006Y-108006D01*
X3011Y-109494D01*
X2662Y-111250D01*
X3011Y-113006D01*
X4006Y-114494D01*
X5494Y-115489D01*
X7250Y-115838D01*
X9006Y-115489D01*
X10494Y-114494D01*
X11489Y-113006D01*
X11838Y-111250D01*
X11489Y-109494D01*
X10494Y-108006D01*
X9006Y-107011D01*
X7250Y-106662D01*
D02*
G37*
G36*
X-8450Y-111450D02*
X-12139D01*
X-11939Y-112456D01*
X-10944Y-113944D01*
X-9456Y-114939D01*
X-8450Y-115139D01*
Y-111450D01*
D02*
G37*
G36*
X112000Y-5950D02*
X108250D01*
Y-10200D01*
X112000D01*
Y-5950D01*
D02*
G37*
G36*
X94700Y59356D02*
X93003Y59133D01*
X91422Y58478D01*
X90064Y57436D01*
X89022Y56078D01*
X88367Y54497D01*
X88144Y52800D01*
X88367Y51103D01*
X89022Y49522D01*
X90064Y48164D01*
X91422Y47122D01*
X93003Y46467D01*
X94700Y46244D01*
X96397Y46467D01*
X97978Y47122D01*
X99336Y48164D01*
X100378Y49522D01*
X101033Y51103D01*
X101256Y52800D01*
X101033Y54497D01*
X100378Y56078D01*
X99336Y57436D01*
X97978Y58478D01*
X96397Y59133D01*
X94700Y59356D01*
D02*
G37*
G36*
X-60061Y67750D02*
X-63750D01*
Y64061D01*
X-63100Y64190D01*
X-61600Y63359D01*
Y56200D01*
X-50600D01*
Y66200D01*
X-58958D01*
X-60071Y67700D01*
X-60061Y67750D01*
D02*
G37*
G36*
X112000Y14050D02*
X108250D01*
Y9800D01*
X112000D01*
Y14050D01*
D02*
G37*
G36*
X108250Y-200D02*
Y-4450D01*
X112000D01*
Y-200D01*
X108250D01*
D02*
G37*
G36*
X106750Y14050D02*
X103000D01*
Y9800D01*
X106750D01*
Y14050D01*
D02*
G37*
G36*
X-76250Y72939D02*
Y69250D01*
X-72561D01*
X-72761Y70256D01*
X-73756Y71744D01*
X-75244Y72739D01*
X-76250Y72939D01*
D02*
G37*
G36*
X-47000Y106439D02*
X-48006Y106239D01*
X-49494Y105244D01*
X-50489Y103756D01*
X-50689Y102750D01*
X-47000D01*
Y106439D01*
D02*
G37*
G36*
X54000Y102939D02*
Y99250D01*
X57689D01*
X57489Y100256D01*
X56494Y101744D01*
X55006Y102739D01*
X54000Y102939D01*
D02*
G37*
G36*
X52500Y90439D02*
X51494Y90239D01*
X50006Y89244D01*
X49011Y87756D01*
X48811Y86750D01*
X52500D01*
Y90439D01*
D02*
G37*
G36*
X-65250Y85439D02*
X-66256Y85239D01*
X-67744Y84244D01*
X-68739Y82756D01*
X-68939Y81750D01*
X-65250D01*
Y85439D01*
D02*
G37*
G36*
X-63750D02*
Y81750D01*
X-60061D01*
X-60261Y82756D01*
X-61256Y84244D01*
X-62744Y85239D01*
X-63750Y85439D01*
D02*
G37*
G36*
X-45500Y106439D02*
Y102750D01*
X-41811D01*
X-42011Y103756D01*
X-43006Y105244D01*
X-44494Y106239D01*
X-45500Y106439D01*
D02*
G37*
G36*
X52500Y97750D02*
X48811D01*
X49011Y96744D01*
X50006Y95256D01*
X51494Y94261D01*
X52500Y94061D01*
Y97750D01*
D02*
G37*
G36*
X-47000Y101250D02*
X-50689D01*
X-50489Y100244D01*
X-49494Y98756D01*
X-48006Y97761D01*
X-47000Y97561D01*
Y101250D01*
D02*
G37*
G36*
X57689Y97750D02*
X54000D01*
Y94061D01*
X55006Y94261D01*
X56494Y95256D01*
X57489Y96744D01*
X57689Y97750D01*
D02*
G37*
G36*
X54000Y90439D02*
Y86750D01*
X57689D01*
X57489Y87756D01*
X56494Y89244D01*
X55006Y90239D01*
X54000Y90439D01*
D02*
G37*
G36*
X52500Y102939D02*
X51494Y102739D01*
X50006Y101744D01*
X49011Y100256D01*
X48811Y99250D01*
X52500D01*
Y102939D01*
D02*
G37*
G36*
X-41811Y101250D02*
X-45500D01*
Y97561D01*
X-44494Y97761D01*
X-43006Y98756D01*
X-42011Y100244D01*
X-41811Y101250D01*
D02*
G37*
G36*
X19000Y72939D02*
Y69250D01*
X22689D01*
X22489Y70256D01*
X21494Y71744D01*
X20006Y72739D01*
X19000Y72939D01*
D02*
G37*
G36*
X30000D02*
X28994Y72739D01*
X27506Y71744D01*
X26511Y70256D01*
X26311Y69250D01*
X30000D01*
Y72939D01*
D02*
G37*
G36*
X31500D02*
Y69250D01*
X35189D01*
X34989Y70256D01*
X33994Y71744D01*
X32506Y72739D01*
X31500Y72939D01*
D02*
G37*
G36*
X-65250D02*
X-66256Y72739D01*
X-67744Y71744D01*
X-68739Y70256D01*
X-68939Y69250D01*
X-65250D01*
Y72939D01*
D02*
G37*
G36*
X-63750D02*
Y69250D01*
X-60061D01*
X-60261Y70256D01*
X-61256Y71744D01*
X-62744Y72739D01*
X-63750Y72939D01*
D02*
G37*
G36*
X17500D02*
X16494Y72739D01*
X15006Y71744D01*
X14011Y70256D01*
X13811Y69250D01*
X17500D01*
Y72939D01*
D02*
G37*
G36*
X52500Y77939D02*
X51494Y77739D01*
X50006Y76744D01*
X49011Y75256D01*
X48811Y74250D01*
X52500D01*
Y77939D01*
D02*
G37*
G36*
X-60061Y80250D02*
X-63750D01*
Y76561D01*
X-62744Y76761D01*
X-61256Y77756D01*
X-60261Y79244D01*
X-60061Y80250D01*
D02*
G37*
G36*
X52500Y85250D02*
X48811D01*
X49011Y84244D01*
X50006Y82756D01*
X51494Y81761D01*
X52500Y81561D01*
Y85250D01*
D02*
G37*
G36*
X57689D02*
X54000D01*
Y81561D01*
X55006Y81761D01*
X56494Y82756D01*
X57489Y84244D01*
X57689Y85250D01*
D02*
G37*
G36*
X54000Y77939D02*
Y74250D01*
X57689D01*
X57489Y75256D01*
X56494Y76744D01*
X55006Y77739D01*
X54000Y77939D01*
D02*
G37*
G36*
X-65250Y80250D02*
X-68939D01*
X-68739Y79244D01*
X-67744Y77756D01*
X-66256Y76761D01*
X-65250Y76561D01*
Y80250D01*
D02*
G37*
%LPD*%
G36*
X-31745Y40301D02*
X-30900Y39200D01*
X-30900D01*
X-30900Y39200D01*
Y34950D01*
X-18900D01*
Y37806D01*
X-6350D01*
X1206Y30250D01*
Y29567D01*
X910Y29123D01*
X696Y28050D01*
Y23550D01*
X910Y22477D01*
X920Y22462D01*
X-162Y21380D01*
X-177Y21390D01*
X-1250Y21604D01*
X-1609D01*
X-1843Y21905D01*
X-2273Y23104D01*
X-1511Y24244D01*
X-1311Y25250D01*
X-5750D01*
Y26000D01*
X-6500D01*
Y30439D01*
X-7506Y30239D01*
X-8994Y29244D01*
X-9350Y28712D01*
X-10850Y29167D01*
Y33250D01*
X-14100D01*
Y28750D01*
X-15600D01*
Y33250D01*
X-17400D01*
X-18850Y33250D01*
X-18857Y33450D01*
X-24150D01*
Y29200D01*
X-20350D01*
X-18900Y29200D01*
X-18850Y27721D01*
Y27721D01*
Y25679D01*
X-18898Y24248D01*
X-20329Y24200D01*
X-30900D01*
Y21494D01*
X-32450D01*
X-39021Y28066D01*
X-38282Y29448D01*
X-38100Y29412D01*
X-36344Y29761D01*
X-34856Y30756D01*
X-33861Y32244D01*
X-33661Y33250D01*
X-38100D01*
Y34000D01*
X-38850D01*
Y38439D01*
X-39856Y38239D01*
X-40748Y37643D01*
X-41149Y37713D01*
X-42295Y38316D01*
X-42561Y39656D01*
X-42763Y39958D01*
X-41961Y41458D01*
X-32902D01*
X-31745Y40301D01*
D02*
G37*
G36*
X4600Y-56888D02*
X4866Y-56835D01*
X6312Y-57000D01*
X6496Y-57924D01*
X6661Y-58756D01*
X7656Y-60244D01*
X9144Y-61239D01*
X10900Y-61588D01*
X12656Y-61239D01*
X12800Y-61143D01*
X14300Y-61944D01*
Y-66600D01*
X17550D01*
Y-62100D01*
X19050D01*
Y-66600D01*
X21600D01*
Y-75000D01*
X21600D01*
Y-76000D01*
X21600D01*
Y-79750D01*
X25600D01*
Y-80500D01*
X26350D01*
Y-85000D01*
X29600D01*
Y-80850D01*
X36850D01*
Y-73600D01*
X37600D01*
Y-72850D01*
X46100D01*
Y-66502D01*
X46857Y-65937D01*
X47313Y-65657D01*
X48878Y-67222D01*
X49622Y-67719D01*
X50500Y-67894D01*
X51100D01*
Y-80850D01*
X53246D01*
X53820Y-82236D01*
X51477Y-84579D01*
X50342Y-84805D01*
X49605Y-84312D01*
X48599Y-84112D01*
Y-88551D01*
X47849D01*
Y-89301D01*
X43410D01*
X43550Y-90007D01*
X42745Y-91507D01*
X38577D01*
X37288Y-90300D01*
X36939Y-88544D01*
X35944Y-87056D01*
X34456Y-86061D01*
X33450Y-85861D01*
Y-90300D01*
X32700D01*
Y-91050D01*
X28261D01*
X28461Y-92056D01*
X29456Y-93544D01*
X30944Y-94539D01*
X30576Y-95960D01*
X30471Y-96156D01*
X-13625D01*
Y-87700D01*
X-24625D01*
Y-92678D01*
X-26011Y-93252D01*
X-29635Y-89628D01*
X-30379Y-89131D01*
X-31257Y-88956D01*
X-39121D01*
X-39756Y-88006D01*
X-41244Y-87011D01*
X-43000Y-86662D01*
X-44756Y-87011D01*
X-46244Y-88006D01*
X-46368Y-88191D01*
X-57583D01*
X-58689Y-87086D01*
X-58114Y-85700D01*
X-57625D01*
Y-81200D01*
X-56875D01*
Y-80450D01*
X-51125D01*
Y-77021D01*
X-49878Y-76089D01*
X-48756Y-76839D01*
X-47750Y-77039D01*
Y-72600D01*
Y-68161D01*
X-48756Y-68361D01*
X-49625Y-68942D01*
X-51125Y-68179D01*
Y-64700D01*
X-56414D01*
X-56562Y-63200D01*
X-55905Y-63069D01*
X-55161Y-62572D01*
X-53833Y-61244D01*
X-41257D01*
X-40379Y-61069D01*
X-39635Y-60572D01*
X-38857Y-59794D01*
X-29700D01*
X-28822Y-59619D01*
X-28078Y-59122D01*
X-26011Y-57055D01*
X-24625Y-57629D01*
Y-61757D01*
X-26156Y-62061D01*
X-27644Y-63056D01*
X-28639Y-64544D01*
X-28988Y-66300D01*
X-28639Y-68056D01*
X-27644Y-69544D01*
X-26156Y-70539D01*
X-24400Y-70888D01*
X-22644Y-70539D01*
X-21156Y-69544D01*
X-20161Y-68056D01*
X-19812Y-66300D01*
X-20161Y-64544D01*
X-20391Y-64200D01*
X-19589Y-62700D01*
X-13625D01*
X-13625Y-62700D01*
Y-62700D01*
X-12125Y-61959D01*
X-11856Y-62139D01*
X-10100Y-62488D01*
X-8344Y-62139D01*
X-6856Y-61144D01*
X-6699Y-60910D01*
X-4742Y-60680D01*
X-4056Y-61139D01*
X-2300Y-61488D01*
X-544Y-61139D01*
X944Y-60144D01*
X1939Y-58656D01*
X2108Y-57805D01*
X2662Y-56853D01*
X3738Y-56717D01*
X4600Y-56888D01*
D02*
G37*
G36*
X-75800Y10009D02*
Y-4000D01*
Y-14000D01*
X-71849D01*
Y-16811D01*
X-72405Y-17595D01*
X-73189Y-18151D01*
X-77300D01*
X-77500Y-18191D01*
X-78289Y-17650D01*
X-82750D01*
Y-21900D01*
X-80167D01*
X-79323Y-23301D01*
X-79522Y-24026D01*
X-79655Y-24225D01*
X-79849Y-25200D01*
X-79655Y-26175D01*
X-79102Y-27002D01*
Y-27898D01*
X-79655Y-28725D01*
X-79837Y-29637D01*
X-80163Y-29867D01*
X-81232Y-30438D01*
X-82244Y-29761D01*
X-84000Y-29412D01*
X-85756Y-29761D01*
X-87244Y-30756D01*
X-87386Y-30968D01*
X-88500Y-31900D01*
X-97500D01*
Y-34219D01*
X-99000Y-34997D01*
X-99506Y-34642D01*
Y-29900D01*
X-99681Y-29022D01*
X-100102Y-28392D01*
X-100011Y-28256D01*
X-99662Y-26500D01*
X-100011Y-24744D01*
X-100909Y-23400D01*
X-100743Y-22726D01*
X-100335Y-21900D01*
X-98000D01*
X-98000Y-21900D01*
Y-21900D01*
X-97993Y-21902D01*
X-97992Y-21902D01*
X-97500Y-22000D01*
X-97500Y-22000D01*
X-97500Y-22000D01*
Y-22000D01*
X-96541Y-22000D01*
X-89459D01*
X-88500Y-22000D01*
Y-22000D01*
X-88500Y-22000D01*
Y-22000D01*
X-88000Y-21900D01*
X-88000D01*
Y-21900D01*
X-88000Y-21900D01*
X-84250D01*
Y-16900D01*
Y-11900D01*
X-87041D01*
X-88000Y-11900D01*
Y-11900D01*
X-88000Y-11900D01*
Y-11900D01*
X-88500Y-12000D01*
X-88500D01*
Y-12000D01*
X-88500Y-12000D01*
X-97500D01*
X-97500Y-12000D01*
Y-12000D01*
X-97507Y-11998D01*
X-97508Y-11998D01*
X-98000Y-11900D01*
X-98000Y-11900D01*
X-98000Y-11900D01*
Y-11900D01*
X-98706Y-11900D01*
X-100206Y-11290D01*
Y-6682D01*
X-100381Y-5804D01*
X-100878Y-5060D01*
X-102552Y-3386D01*
X-101978Y-2000D01*
X-98000D01*
Y706D01*
X-94383D01*
X-93987Y2D01*
X-93867Y-753D01*
X-94244Y-1006D01*
X-95239Y-2494D01*
X-95439Y-3500D01*
X-86561D01*
X-86561Y-3500D01*
X-85425Y-2000D01*
X-84250D01*
Y3000D01*
Y8000D01*
X-87206D01*
X-88000Y8000D01*
X-88706Y9208D01*
Y10621D01*
X-87756Y11256D01*
X-86761Y12744D01*
X-86412Y14500D01*
X-86650Y15700D01*
X-86024Y16715D01*
X-84725Y17200D01*
X-83294Y17503D01*
X-75800Y10009D01*
D02*
G37*
G36*
X-62200Y-69500D02*
X-62770Y-69530D01*
X-63280Y-69620D01*
X-63730Y-69770D01*
X-64120Y-69980D01*
X-64450Y-70250D01*
X-64720Y-70580D01*
X-64930Y-70970D01*
X-65080Y-71420D01*
X-65170Y-71930D01*
X-65200Y-72500D01*
X-68200D01*
X-68230Y-71930D01*
X-68320Y-71420D01*
X-68470Y-70970D01*
X-68680Y-70580D01*
X-68950Y-70250D01*
X-69280Y-69980D01*
X-69670Y-69770D01*
X-70120Y-69620D01*
X-70630Y-69530D01*
X-71200Y-69500D01*
X-66700Y-66500D01*
X-62200Y-69500D01*
D02*
G37*
%LPC*%
G36*
X-37350Y38439D02*
Y34750D01*
X-33661D01*
X-33861Y35756D01*
X-34856Y37244D01*
X-36344Y38239D01*
X-37350Y38439D01*
D02*
G37*
G36*
X-25650Y33450D02*
X-30900D01*
Y29200D01*
X-25650D01*
Y33450D01*
D02*
G37*
G36*
X-5000Y30439D02*
Y26750D01*
X-1311D01*
X-1511Y27756D01*
X-2506Y29244D01*
X-3994Y30239D01*
X-5000Y30439D01*
D02*
G37*
G36*
X9939Y-82250D02*
X6250D01*
Y-85939D01*
X7256Y-85739D01*
X8744Y-84744D01*
X9739Y-83256D01*
X9939Y-82250D01*
D02*
G37*
G36*
X-51125Y-81950D02*
X-56125D01*
Y-85700D01*
X-51125D01*
Y-81950D01*
D02*
G37*
G36*
X46100Y-74350D02*
X38350D01*
Y-80850D01*
X46100D01*
Y-74350D01*
D02*
G37*
G36*
X24850Y-81250D02*
X21600D01*
Y-85000D01*
X24850D01*
Y-81250D01*
D02*
G37*
G36*
X4750Y-82250D02*
X1061D01*
X1261Y-83256D01*
X2256Y-84744D01*
X3744Y-85739D01*
X4750Y-85939D01*
Y-82250D01*
D02*
G37*
G36*
X47099Y-84112D02*
X46093Y-84312D01*
X44604Y-85307D01*
X43610Y-86796D01*
X43410Y-87801D01*
X47099D01*
Y-84112D01*
D02*
G37*
G36*
X31950Y-85861D02*
X30944Y-86061D01*
X29456Y-87056D01*
X28461Y-88544D01*
X28261Y-89550D01*
X31950D01*
Y-85861D01*
D02*
G37*
G36*
X-1061Y-82250D02*
X-4750D01*
Y-85939D01*
X-3744Y-85739D01*
X-2256Y-84744D01*
X-1261Y-83256D01*
X-1061Y-82250D01*
D02*
G37*
G36*
X-6250D02*
X-9939D01*
X-9739Y-83256D01*
X-8744Y-84744D01*
X-7256Y-85739D01*
X-6250Y-85939D01*
Y-82250D01*
D02*
G37*
G36*
X4750Y-77061D02*
X3744Y-77261D01*
X2256Y-78256D01*
X1261Y-79744D01*
X1061Y-80750D01*
X4750D01*
Y-77061D01*
D02*
G37*
G36*
X-4750D02*
Y-80750D01*
X-1061D01*
X-1261Y-79744D01*
X-2256Y-78256D01*
X-3744Y-77261D01*
X-4750Y-77061D01*
D02*
G37*
G36*
X-6250D02*
X-7256Y-77261D01*
X-8744Y-78256D01*
X-9739Y-79744D01*
X-9939Y-80750D01*
X-6250D01*
Y-77061D01*
D02*
G37*
G36*
X6250D02*
Y-80750D01*
X9939D01*
X9739Y-79744D01*
X8744Y-78256D01*
X7256Y-77261D01*
X6250Y-77061D01*
D02*
G37*
G36*
X-39750Y-68161D02*
X-40756Y-68361D01*
X-42244Y-69356D01*
X-42250Y-69364D01*
X-43750D01*
X-43756Y-69356D01*
X-45244Y-68361D01*
X-46250Y-68161D01*
Y-72600D01*
Y-77039D01*
X-45244Y-76839D01*
X-43756Y-75844D01*
X-43750Y-75836D01*
X-42250D01*
X-42244Y-75844D01*
X-40756Y-76839D01*
X-39750Y-77039D01*
Y-72600D01*
Y-68161D01*
D02*
G37*
G36*
X-38250D02*
Y-71850D01*
X-34561D01*
X-34761Y-70844D01*
X-35756Y-69356D01*
X-37244Y-68361D01*
X-38250Y-68161D01*
D02*
G37*
G36*
X-34561Y-73350D02*
X-38250D01*
Y-77039D01*
X-37244Y-76839D01*
X-35756Y-75844D01*
X-34761Y-74356D01*
X-34561Y-73350D01*
D02*
G37*
G36*
X-79000Y2250D02*
X-82750D01*
Y-2000D01*
X-79000D01*
Y2250D01*
D02*
G37*
G36*
X-86561Y-5000D02*
X-90250D01*
Y-8689D01*
X-89244Y-8489D01*
X-87756Y-7494D01*
X-86761Y-6006D01*
X-86561Y-5000D01*
D02*
G37*
G36*
X-91750D02*
X-95439D01*
X-95239Y-6006D01*
X-94244Y-7494D01*
X-92756Y-8489D01*
X-91750Y-8689D01*
Y-5000D01*
D02*
G37*
G36*
X-82750Y8000D02*
Y3750D01*
X-79000D01*
Y8000D01*
X-82750D01*
D02*
G37*
G36*
Y-11900D02*
Y-16150D01*
X-79000D01*
Y-11900D01*
X-82750D01*
D02*
G37*
%LPD*%
D10*
X88000Y-32800D02*
D03*
X98000D02*
D03*
X-29500Y-48100D02*
D03*
X-39500D02*
D03*
X-89300Y-46600D02*
D03*
X-99300D02*
D03*
X98000Y23800D02*
D03*
X108000D02*
D03*
D11*
X-60300Y-6000D02*
D03*
Y4000D02*
D03*
X-68300Y-6000D02*
D03*
Y4000D02*
D03*
X-52300Y-6000D02*
D03*
Y4000D02*
D03*
X77700Y-26500D02*
D03*
Y-16500D02*
D03*
X80900Y24900D02*
D03*
Y34900D02*
D03*
X-105000Y23800D02*
D03*
Y33800D02*
D03*
X72800Y24900D02*
D03*
Y34900D02*
D03*
X25600Y-80500D02*
D03*
Y-70500D02*
D03*
X72500Y-63600D02*
D03*
Y-73600D02*
D03*
X-14850Y28750D02*
D03*
Y18750D02*
D03*
X76100Y-48400D02*
D03*
Y-38400D02*
D03*
X-38000Y-27000D02*
D03*
Y-37000D02*
D03*
X18300Y-62100D02*
D03*
Y-52100D02*
D03*
D12*
X-69300Y-14950D02*
D03*
X-64800D02*
D03*
X-60300D02*
D03*
X-55800D02*
D03*
X-51300D02*
D03*
Y-44450D02*
D03*
X-55800D02*
D03*
X-60300D02*
D03*
X-64800D02*
D03*
X-69300D02*
D03*
D13*
X-45550Y-20700D02*
D03*
Y-25200D02*
D03*
Y-29700D02*
D03*
Y-34200D02*
D03*
Y-38700D02*
D03*
X-75050D02*
D03*
Y-34200D02*
D03*
Y-29700D02*
D03*
Y-25200D02*
D03*
Y-20700D02*
D03*
D29*
X-24900Y34200D02*
D03*
Y19200D02*
D03*
X-77200Y-53000D02*
D03*
Y-68000D02*
D03*
D34*
X65000Y37200D02*
Y69500D01*
X64750Y69750D02*
X65000Y69500D01*
X-71250Y49000D02*
Y49004D01*
X-71248Y49002D01*
X-49827D01*
X-30710Y46752D02*
X-27057Y43100D01*
X-49827Y49002D02*
X-47578Y46752D01*
X-30710D01*
X-31952Y43752D02*
X-28300Y40100D01*
X-52003Y43752D02*
X-31952D01*
X-82700Y49200D02*
X-62450Y28950D01*
X-99300Y-46600D02*
Y-39000D01*
X-101800Y-36500D02*
X-99300Y-39000D01*
X-101800Y-36500D02*
Y-29900D01*
X-107750Y-23950D02*
X-101800Y-29900D01*
X-107750Y-23950D02*
Y-5675D01*
X-27057Y43100D02*
X-4157D01*
X-28300Y40100D02*
X-5400D01*
X-83004Y-19212D02*
X-83000Y-19216D01*
X-84000Y-39800D02*
Y-34000D01*
Y-39800D02*
X-79350Y-44450D01*
X-83004Y-19212D02*
X-83000Y-19208D01*
X-83004Y-19204D02*
X-83000Y-19208D01*
X-83004Y-19204D02*
X-82500Y-18700D01*
X-83900Y-17300D02*
X-82500Y-18700D01*
X92750Y-43650D02*
X98000Y-38400D01*
Y-32800D01*
X57600Y-81700D02*
X73082D01*
X53099Y-86201D02*
X57600Y-81700D01*
X53099Y-90726D02*
Y-86201D01*
X50023Y-93801D02*
X53099Y-90726D01*
X37425Y-93801D02*
X50023D01*
X32776Y-98450D02*
X37425Y-93801D01*
X77400Y-77382D02*
Y-58600D01*
X73082Y-81700D02*
X77400Y-77382D01*
X68300Y-49500D02*
X77400Y-58600D01*
X60000Y-49500D02*
X68300D01*
X58500Y-48000D02*
X60000Y-49500D01*
X58500Y-48000D02*
Y-43200D01*
X88000Y-32800D02*
Y-28600D01*
X71250Y-30950D02*
X73100Y-32800D01*
X88000D01*
X88350Y-19450D02*
X102150D01*
X81300Y-26500D02*
X88350Y-19450D01*
X77700Y-26500D02*
X81300D01*
X77550Y-16200D02*
X78450Y-17100D01*
X65500Y-16200D02*
X77550D01*
X87600Y-38500D02*
X92750Y-43650D01*
X76100Y-38500D02*
X87600D01*
X73800Y-36200D02*
X76100Y-38500D01*
X65500Y-36200D02*
X73800D01*
X91400Y-25200D02*
X98000D01*
X88000Y-28600D02*
X91400Y-25200D01*
X-43000Y-91250D02*
X-31257D01*
X-24057Y-98450D01*
X32776D01*
X59600Y-57600D02*
X65600Y-63600D01*
X72500D01*
X107600Y15000D02*
Y15100D01*
X107500Y15200D02*
X107600Y15100D01*
X-83500Y-13700D02*
Y3000D01*
X8500Y25800D02*
Y30443D01*
X3500Y25800D02*
Y31200D01*
X72800Y38600D02*
X74350Y40150D01*
X72800Y34900D02*
Y38600D01*
X71200Y19500D02*
X79300D01*
X70500Y18800D02*
X71200Y19500D01*
X65500Y18800D02*
X70500D01*
X79300Y19500D02*
X80900Y21100D01*
Y24900D01*
X48500Y25800D02*
Y30000D01*
X73825Y4150D02*
X78175D01*
X98000Y-4800D02*
Y23800D01*
X58500Y-43200D02*
X58800Y-43500D01*
X50500Y-65600D02*
X57900D01*
X48900Y-64000D02*
X50500Y-65600D01*
X48900Y-64000D02*
Y-51000D01*
X46850Y-48950D02*
X48900Y-51000D01*
X40350Y-48950D02*
X46850D01*
X38500Y-47100D02*
X40350Y-48950D01*
X57900Y-65600D02*
X59600Y-67300D01*
X37600Y-64100D02*
Y-57600D01*
X36100Y-65600D02*
X37600Y-64100D01*
X28500Y25800D02*
Y30500D01*
X-3500Y13800D02*
X8500D01*
X108000Y23800D02*
Y28600D01*
X88500Y-6800D02*
X96000D01*
X98000Y-4800D01*
X18500Y-51550D02*
Y-43200D01*
X33500Y-52200D02*
Y-43200D01*
X38500Y-47100D02*
Y-43200D01*
X-3500Y-11200D02*
X-3200D01*
X23500Y-43200D02*
Y-16200D01*
X31000Y-8700D01*
X53500Y-31200D01*
X65500D01*
Y13800D02*
X74000D01*
X74000Y13800D01*
X65500Y-26200D02*
X69900D01*
X71250Y-27550D01*
Y-30950D02*
Y-27550D01*
X65500Y3800D02*
X68457D01*
X65500Y-6200D02*
X70400D01*
X75500Y-1100D01*
X76000D01*
X75021Y-9200D02*
X75469Y-8752D01*
X65500Y-11200D02*
X69200D01*
X71200Y-9200D01*
X75021D01*
X65500Y-1200D02*
X68475D01*
X73825Y4150D01*
X59600Y-73600D02*
Y-67300D01*
Y-73600D02*
X72500D01*
X33500Y-52200D02*
X38250Y-56950D01*
X-3550Y-6150D02*
X-3500Y-6200D01*
X-3600Y-16100D02*
X-3500Y-16200D01*
Y3800D02*
Y3901D01*
Y-26200D02*
X-3200D01*
X-5400Y40100D02*
X3500Y31200D01*
X-4157Y43100D02*
X8500Y30443D01*
X-16000Y18800D02*
X-3500D01*
X23500Y25800D02*
Y33200D01*
X21800Y34900D02*
X23500Y33200D01*
X18200Y34900D02*
X21800D01*
X48500Y30000D02*
X50400Y31900D01*
X50100Y37300D02*
X54700D01*
X45200Y32400D02*
X50100Y37300D01*
X89400Y33700D02*
Y38600D01*
X74350Y40150D02*
X87850D01*
X89400Y38600D01*
X38500Y25800D02*
Y28933D01*
X38350Y33025D02*
Y37375D01*
X33100Y35100D02*
Y35200D01*
X41967Y32400D02*
X45200D01*
X38500Y28933D02*
X41967Y32400D01*
X28500Y30500D02*
X33100Y35100D01*
X33500Y25800D02*
Y28175D01*
X38350Y33025D01*
X36150Y54150D02*
X36300Y54300D01*
X36150Y39574D02*
X38350Y37375D01*
X36150Y39574D02*
Y54150D01*
X80900Y33600D02*
Y34900D01*
Y33600D02*
X89400Y25100D01*
X104600Y32000D02*
X108000Y28600D01*
X103500Y32000D02*
X104600D01*
X8500Y13800D02*
X29200Y-6900D01*
X50400Y31900D02*
X65800D01*
X72520Y25180D01*
X-7800Y-21200D02*
X-3500D01*
X3100Y-52200D02*
X3200Y-52300D01*
X8500Y-47557D02*
Y-46800D01*
X-3500Y-36200D02*
X-1100D01*
X-10200Y-31200D02*
X-3500D01*
X4893Y-51164D02*
X8500Y-47557D01*
X-8075Y-11200D02*
X-3500D01*
X-7950Y-6150D02*
X-3550D01*
X-40100Y-49308D02*
Y-48100D01*
X-29500Y-48100D02*
Y-44600D01*
X-27200Y-42300D01*
X-29500Y-53057D02*
Y-48100D01*
X-30943Y-54500D02*
X-29500Y-53057D01*
X-41050Y-54500D02*
X-30943D01*
X-43432Y-43350D02*
X-34650D01*
X-44750Y-44668D02*
X-43432Y-43350D01*
X-64800Y-49875D02*
Y-44450D01*
X-65450Y-54875D02*
Y-50525D01*
X-64800Y-49875D01*
X-45550Y-34200D02*
X-41300D01*
X-38500Y-37000D01*
X-38000D01*
X-69500Y5200D02*
X-68300Y4000D01*
X-62450Y23400D02*
X-58600Y19550D01*
X-51268D01*
X86174Y8250D02*
X88925Y5500D01*
X92700D01*
X72907Y8250D02*
X86174D01*
X68457Y3800D02*
X72907Y8250D01*
X78175Y4150D02*
X79325Y3000D01*
X84000D01*
X-60300Y-14950D02*
Y-6000D01*
Y-14950D02*
X-60300Y-14950D01*
X-65050Y-14700D02*
X-64800Y-14950D01*
X-65050Y-14700D02*
Y-9250D01*
X-68300Y-6000D02*
X-65050Y-9250D01*
X-55800Y-14950D02*
X-55550Y-14700D01*
Y-9250D01*
X-52300Y-6000D01*
X-62500Y7700D02*
X-60300Y5500D01*
Y4000D02*
Y5500D01*
X-52300Y4000D02*
Y5400D01*
X-49850Y7850D01*
X-93975Y25200D02*
X-82700D01*
X-68300Y10800D01*
Y4000D02*
Y10800D01*
X-93975Y37200D02*
X-82700D01*
X-62500Y17000D01*
Y7700D02*
Y17000D01*
X-93975Y49200D02*
X-82700D01*
X-62450Y23400D02*
Y28950D01*
X-45550Y-29700D02*
X-40700D01*
X-38000Y-27000D01*
X-51300Y-44450D02*
Y-38700D01*
X-60300Y-29700D02*
X-51300Y-38700D01*
X-102500Y-16900D02*
X-93100D01*
X-93000Y-17000D01*
X-89300Y-46600D02*
Y-40900D01*
X-94000Y-36200D02*
X-89300Y-40900D01*
X-62375Y-57950D02*
X-58025D01*
X-65667Y-58900D02*
X-63617Y-60950D01*
X-56783D01*
X-54783Y-58950D01*
X-65450Y-54875D02*
X-62375Y-57950D01*
X-54783Y-58950D02*
X-41257D01*
X-42500Y-55950D02*
X-41050Y-54500D01*
X-43742Y-52950D02*
X-40100Y-49308D01*
X-41257Y-58950D02*
X-39807Y-57500D01*
X107500Y-5200D02*
Y14800D01*
Y15000D01*
Y-14100D02*
Y-5200D01*
X102150Y-19450D02*
X107500Y-14100D01*
X-83900Y-17300D02*
X-83500Y-16900D01*
X-60300Y-29700D02*
X-45550D01*
X-89300Y-52082D02*
X-82482Y-58900D01*
X-89300Y-52082D02*
Y-46600D01*
X-82482Y-58900D02*
X-65667D01*
X-79350Y-44450D02*
X-69300D01*
X4893Y-51164D02*
X5150Y-51421D01*
X-110750Y-2675D02*
X-107750Y-5675D01*
X-91000Y6100D02*
Y14500D01*
X-94100Y3000D02*
X-91000Y6100D01*
X-102500Y3000D02*
X-94100D01*
X-107750Y7432D02*
X-105000Y10182D01*
X-107750Y-1432D02*
Y7432D01*
X-105000Y10182D02*
Y23800D01*
X-110750Y-2675D02*
Y8675D01*
X-108000Y11425D01*
Y18118D01*
X-109750Y19868D02*
X-108000Y18118D01*
X-109750Y19868D02*
Y28550D01*
X-105000Y33300D01*
Y33800D01*
X25600Y-69624D02*
X29625Y-65600D01*
X25600Y-70500D02*
Y-69624D01*
X25550Y-68300D02*
X25600D01*
X29625Y-65600D02*
X36100D01*
X-1100Y-44600D02*
Y-36200D01*
X-38000Y-37000D02*
X-34500D01*
X13500Y-47200D02*
Y-43200D01*
X-39807Y-57500D02*
X-29700D01*
X-24200Y-52000D01*
X-34650Y-43350D02*
X-30200Y-38900D01*
X-34500Y-37000D02*
X-33200Y-35700D01*
X4600Y-51971D02*
X5150Y-51421D01*
X4600Y-52300D02*
Y-51971D01*
X-2300Y-56900D02*
Y-51775D01*
X10900Y-57000D02*
Y-49800D01*
X13500Y-47200D01*
X3500Y-45975D02*
Y-43200D01*
X-2300Y-51775D02*
X3500Y-45975D01*
X25800Y-62000D02*
Y-58400D01*
X18300Y-55800D02*
Y-52100D01*
Y-55800D02*
X19350Y-56850D01*
X24250D01*
X25800Y-58400D01*
X25900Y-51600D02*
X28500Y-49000D01*
Y-43200D01*
X-18700Y-34300D02*
X-13300D01*
X-10200Y-31200D01*
X-3600Y-26100D02*
X-3500Y-26200D01*
X-18700Y-26100D02*
X-3600D01*
X-13600Y-19800D02*
X-9200D01*
X-7800Y-21200D01*
X-10900Y-13400D02*
X-8100Y-16200D01*
X-3500D01*
X-102500Y-16900D02*
Y-6682D01*
X-107750Y-1432D02*
X-102500Y-6682D01*
X-44750Y-44746D02*
Y-44668D01*
X-49954Y-49950D02*
X-44750Y-44746D01*
X-55800Y-48100D02*
Y-44450D01*
Y-48100D02*
X-53950Y-49950D01*
X-49954D01*
X-58025Y-57950D02*
X-56025Y-55950D01*
X-60200Y-52700D02*
X-59950Y-52950D01*
X-43742D01*
X-56025Y-55950D02*
X-42500D01*
X-60300Y-52600D02*
Y-44450D01*
Y-52600D02*
X-60200Y-52700D01*
X-10100Y-53600D02*
X-1100Y-44600D01*
X-10100Y-53600D02*
X-10000Y-53700D01*
X-10100Y-57900D02*
X-10000Y-57800D01*
Y-53700D01*
X-49850Y7850D02*
Y18132D01*
X-51268Y19550D02*
X-49850Y18132D01*
X-24900Y19200D02*
X-24450Y18750D01*
X-14850D01*
X-42650Y22850D02*
X-42525D01*
X-46800Y32600D02*
Y37900D01*
Y32600D02*
X-33400Y19200D01*
X-24900D01*
X-55200Y35400D02*
X-55075D01*
X-42525Y22850D01*
X-33125Y13450D01*
X-8657Y-1200D02*
X-3500D01*
X-9516Y3901D02*
X-3500D01*
X-33200Y-35700D02*
Y-19700D01*
X-30200Y-38900D02*
Y-15210D01*
X-27200Y-42300D02*
Y-13967D01*
X-24200Y-52000D02*
Y-12725D01*
X-33125Y13450D02*
X-14450D01*
X-9800Y8800D01*
X-3500D01*
X-37400Y10300D02*
X-15915D01*
X-9516Y3901D01*
X-17275Y-2000D02*
X-8075Y-11200D01*
X-16107Y6250D02*
X-8657Y-1200D01*
X-17275Y-2000D02*
X-17275Y-2000D01*
X-17276D02*
X-17275Y-2000D01*
X-32040Y-4950D02*
X-32040D01*
X-42650Y-2826D02*
Y22850D01*
X-17350Y3250D02*
X-7950Y-6150D01*
X-36700Y-16200D02*
X-33200Y-19700D01*
X-42650Y-2826D02*
X-34525Y-10950D01*
X-34525D01*
X-32225Y-13250D01*
X-32160D01*
X-30200Y-15210D01*
X-33283Y-7950D02*
X-33283D01*
X-30983Y-10250D01*
X-30917D01*
X-27200Y-13967D01*
X-32040Y-4950D02*
X-29740Y-7250D01*
X-29675D01*
X-24200Y-12725D01*
X-18400Y-13400D02*
X-10900D01*
X-27566Y-2000D02*
X-17276D01*
X-32816Y175D02*
X-29740Y3250D01*
X-32816Y-4175D02*
Y175D01*
Y-4175D02*
X-32040Y-4950D01*
X-29740Y3250D02*
X-17350D01*
X-35816Y-5417D02*
X-33283Y-7950D01*
X-35816Y-5417D02*
Y1417D01*
X-30983Y6250D01*
X-16107D01*
D35*
X-89200Y-62800D02*
X-84000Y-68000D01*
X-58850Y-91250D02*
X-43000D01*
X-84000Y-68000D02*
X-77200D01*
X-66700D02*
X-55875D01*
X-77200D02*
X-66700D01*
Y-83400D02*
X-58850Y-91250D01*
X-66700Y-83400D02*
Y-68000D01*
D40*
X-28116Y-106393D02*
D03*
X-40384Y-103106D02*
D03*
X28116Y-106393D02*
D03*
X40384Y-103106D02*
D03*
D41*
X94700Y52800D02*
D03*
X43900Y42640D02*
D03*
Y62960D02*
D03*
D42*
X-5500Y-81500D02*
D03*
X5500D02*
D03*
X53250Y98500D02*
D03*
Y86000D02*
D03*
Y73500D02*
D03*
X77500Y69750D02*
D03*
X64750D02*
D03*
X-91000Y-4250D02*
D03*
X-71250Y49000D02*
D03*
X-52003Y43752D02*
D03*
X-84000Y-34000D02*
D03*
X-104250Y-26500D02*
D03*
X57200Y-55000D02*
D03*
X90800Y-14000D02*
D03*
X55600Y15800D02*
D03*
X9800Y10600D02*
D03*
X89400Y33700D02*
D03*
X65000Y37200D02*
D03*
X88500Y14900D02*
D03*
X92700Y5500D02*
D03*
X7250Y-111250D02*
D03*
X-89200Y-62800D02*
D03*
X92750Y-43650D02*
D03*
X74000Y13800D02*
D03*
X75469Y-8752D02*
D03*
X76000Y-1100D02*
D03*
X32700Y-90300D02*
D03*
X-7700Y-110700D02*
D03*
X47849Y-88551D02*
D03*
X-55200Y35400D02*
D03*
X-46800Y37900D02*
D03*
X18200Y34900D02*
D03*
X-38100Y34000D02*
D03*
X54700Y37300D02*
D03*
X33100Y35200D02*
D03*
X29500Y-6600D02*
D03*
X36300Y54300D02*
D03*
X89400Y25100D02*
D03*
X103500Y32000D02*
D03*
X-43000Y-91250D02*
D03*
X-39000Y-72600D02*
D03*
X-47000D02*
D03*
X84000Y3000D02*
D03*
X-60200Y-52700D02*
D03*
X-64500Y-25500D02*
D03*
X-77200Y-53000D02*
D03*
X-13600Y-19800D02*
D03*
X-24400Y-66300D02*
D03*
X25800Y-62000D02*
D03*
X-91000Y14500D02*
D03*
X-18700Y-26100D02*
D03*
X-18700Y-34300D02*
D03*
X-9700Y-44400D02*
D03*
X-2300Y-56900D02*
D03*
X4600Y-52300D02*
D03*
X10900Y-57000D02*
D03*
X25900Y-51600D02*
D03*
X-10100Y-57900D02*
D03*
X64600Y25400D02*
D03*
X-37400Y10300D02*
D03*
X-36700Y-16200D02*
D03*
X-18400Y-13400D02*
D03*
X-27566Y-2000D02*
D03*
X27800Y40507D02*
D03*
X30750Y68500D02*
D03*
X18250D02*
D03*
X-64500D02*
D03*
X-77000D02*
D03*
X-64500Y81000D02*
D03*
X-5750Y26000D02*
D03*
X-46250Y102000D02*
D03*
X36250Y-71500D02*
D03*
D48*
X-56100Y61200D02*
D03*
Y13200D02*
D03*
X-19125Y-92700D02*
D03*
Y-57700D02*
D03*
D49*
X-93975Y49200D02*
D03*
Y37200D02*
D03*
Y25200D02*
D03*
X-56875Y-69200D02*
D03*
Y-81200D02*
D03*
D50*
X59600Y-73600D02*
D03*
X37600D02*
D03*
Y-57600D02*
D03*
X59600Y-57600D02*
D03*
D51*
X-60300Y-29700D02*
D03*
D52*
X58500Y-43200D02*
D03*
X53500D02*
D03*
X48500D02*
D03*
X43500D02*
D03*
X38500D02*
D03*
X33500D02*
D03*
X28500D02*
D03*
X23500D02*
D03*
X18500D02*
D03*
X13500D02*
D03*
X8500D02*
D03*
X3500D02*
D03*
Y25800D02*
D03*
X8500D02*
D03*
X13500D02*
D03*
X18500D02*
D03*
X23500D02*
D03*
X28500D02*
D03*
X33500D02*
D03*
X38500D02*
D03*
X43500D02*
D03*
X48500D02*
D03*
X53500D02*
D03*
X58500D02*
D03*
D53*
X-3500Y-36200D02*
D03*
Y-31200D02*
D03*
Y-26200D02*
D03*
Y-21200D02*
D03*
Y-16200D02*
D03*
Y-11200D02*
D03*
Y-6200D02*
D03*
Y-1200D02*
D03*
Y3800D02*
D03*
Y8800D02*
D03*
Y13800D02*
D03*
Y18800D02*
D03*
X65500D02*
D03*
Y13800D02*
D03*
Y8800D02*
D03*
Y3800D02*
D03*
Y-1200D02*
D03*
Y-6200D02*
D03*
Y-11200D02*
D03*
Y-16200D02*
D03*
Y-21200D02*
D03*
Y-26200D02*
D03*
Y-31200D02*
D03*
Y-36200D02*
D03*
D54*
X31000Y-8700D02*
D03*
D55*
X-93000Y-17000D02*
D03*
X-83500Y3000D02*
D03*
X-102500D02*
D03*
X-93000Y-36900D02*
D03*
X-83500Y-16900D02*
D03*
X-102500D02*
D03*
X98000Y-5200D02*
D03*
X107500Y14800D02*
D03*
X88500D02*
D03*
X98000Y-25200D02*
D03*
X107500Y-5200D02*
D03*
X88500D02*
D03*
M02*
