G04 Layer_Color=16711935*
%FSLAX44Y44*%
%MOMM*%
G71*
G01*
G75*
%ADD41C,1.0000*%
%ADD63R,0.7500X0.6500*%
%ADD64R,0.6500X0.7500*%
%ADD65O,0.3500X0.8000*%
%ADD66O,0.8000X0.3500*%
%ADD82R,1.0500X0.8500*%
%ADD85C,1.0500*%
%ADD86C,0.7500*%
%ADD87R,0.9500X0.8500*%
%ADD88R,1.0000X0.7500*%
%ADD89R,1.5500X1.3000*%
%ADD90R,1.7000X1.7000*%
%ADD91O,0.4000X0.8500*%
%ADD92O,0.8500X0.4000*%
%ADD93R,5.7500X5.7500*%
%ADD94R,0.7500X0.8500*%
D41*
X94700Y52800D02*
D03*
X43900Y42640D02*
D03*
Y62960D02*
D03*
D63*
X88000Y-32800D02*
D03*
X98000D02*
D03*
X-29500Y-48100D02*
D03*
X-39500D02*
D03*
X-89300Y-46600D02*
D03*
X-99300D02*
D03*
X98000Y23800D02*
D03*
X108000D02*
D03*
D64*
X-60300Y-6000D02*
D03*
Y4000D02*
D03*
X-68300Y-6000D02*
D03*
Y4000D02*
D03*
X-52300Y-6000D02*
D03*
Y4000D02*
D03*
X77700Y-26500D02*
D03*
Y-16500D02*
D03*
X80900Y24900D02*
D03*
Y34900D02*
D03*
X-105000Y23800D02*
D03*
Y33800D02*
D03*
X72800Y24900D02*
D03*
Y34900D02*
D03*
X25600Y-80500D02*
D03*
Y-70500D02*
D03*
X72500Y-63600D02*
D03*
Y-73600D02*
D03*
X-14850Y28750D02*
D03*
Y18750D02*
D03*
X76100Y-48400D02*
D03*
Y-38400D02*
D03*
X-38000Y-27000D02*
D03*
Y-37000D02*
D03*
X18300Y-62100D02*
D03*
Y-52100D02*
D03*
D65*
X-69300Y-14950D02*
D03*
X-64800D02*
D03*
X-60300D02*
D03*
X-55800D02*
D03*
X-51300D02*
D03*
Y-44450D02*
D03*
X-55800D02*
D03*
X-60300D02*
D03*
X-64800D02*
D03*
X-69300D02*
D03*
D66*
X-45550Y-20700D02*
D03*
Y-25200D02*
D03*
Y-29700D02*
D03*
Y-34200D02*
D03*
Y-38700D02*
D03*
X-75050D02*
D03*
Y-34200D02*
D03*
Y-29700D02*
D03*
Y-25200D02*
D03*
Y-20700D02*
D03*
D82*
X-24900Y34200D02*
D03*
Y19200D02*
D03*
X-77200Y-53000D02*
D03*
Y-68000D02*
D03*
D85*
X-28116Y-106393D02*
D03*
X-40384Y-103106D02*
D03*
X28116Y-106393D02*
D03*
X40384Y-103106D02*
D03*
D86*
X-5500Y-81500D02*
D03*
X5500D02*
D03*
X53250Y98500D02*
D03*
Y86000D02*
D03*
Y73500D02*
D03*
X77500Y69750D02*
D03*
X64750D02*
D03*
X-91000Y-4250D02*
D03*
X-71250Y49000D02*
D03*
X-52003Y43752D02*
D03*
X-84000Y-34000D02*
D03*
X-104250Y-26500D02*
D03*
X57200Y-55000D02*
D03*
X90800Y-14000D02*
D03*
X55600Y15800D02*
D03*
X9800Y10600D02*
D03*
X89400Y33700D02*
D03*
X65000Y37200D02*
D03*
X88500Y14900D02*
D03*
X92700Y5500D02*
D03*
X7250Y-111250D02*
D03*
X-89200Y-62800D02*
D03*
X92750Y-43650D02*
D03*
X74000Y13800D02*
D03*
X75469Y-8752D02*
D03*
X76000Y-1100D02*
D03*
X32700Y-90300D02*
D03*
X-7700Y-110700D02*
D03*
X47849Y-88551D02*
D03*
X-55200Y35400D02*
D03*
X-46800Y37900D02*
D03*
X18200Y34900D02*
D03*
X-38100Y34000D02*
D03*
X54700Y37300D02*
D03*
X33100Y35200D02*
D03*
X29500Y-6600D02*
D03*
X36300Y54300D02*
D03*
X89400Y25100D02*
D03*
X103500Y32000D02*
D03*
X-43000Y-91250D02*
D03*
X-39000Y-72600D02*
D03*
X-47000D02*
D03*
X84000Y3000D02*
D03*
X-60200Y-52700D02*
D03*
X-64500Y-25500D02*
D03*
X-77200Y-53000D02*
D03*
X-13600Y-19800D02*
D03*
X-24400Y-66300D02*
D03*
X25800Y-62000D02*
D03*
X-91000Y14500D02*
D03*
X-18700Y-26100D02*
D03*
X-18700Y-34300D02*
D03*
X-9700Y-44400D02*
D03*
X-2300Y-56900D02*
D03*
X4600Y-52300D02*
D03*
X10900Y-57000D02*
D03*
X25900Y-51600D02*
D03*
X-10100Y-57900D02*
D03*
X64600Y25400D02*
D03*
X-37400Y10300D02*
D03*
X-36700Y-16200D02*
D03*
X-18400Y-13400D02*
D03*
X-27566Y-2000D02*
D03*
X27800Y40507D02*
D03*
X30750Y68500D02*
D03*
X18250D02*
D03*
X-64500D02*
D03*
X-77000D02*
D03*
X-64500Y81000D02*
D03*
X-5750Y26000D02*
D03*
X-46250Y102000D02*
D03*
X36250Y-71500D02*
D03*
D87*
X-56100Y61200D02*
D03*
Y13200D02*
D03*
X-19125Y-92700D02*
D03*
Y-57700D02*
D03*
D88*
X-93975Y49200D02*
D03*
Y37200D02*
D03*
Y25200D02*
D03*
X-56875Y-69200D02*
D03*
Y-81200D02*
D03*
D89*
X59600Y-73600D02*
D03*
X37600D02*
D03*
Y-57600D02*
D03*
X59600Y-57600D02*
D03*
D90*
X-60300Y-29700D02*
D03*
D91*
X58500Y-43200D02*
D03*
X53500D02*
D03*
X48500D02*
D03*
X43500D02*
D03*
X38500D02*
D03*
X33500D02*
D03*
X28500D02*
D03*
X23500D02*
D03*
X18500D02*
D03*
X13500D02*
D03*
X8500D02*
D03*
X3500D02*
D03*
Y25800D02*
D03*
X8500D02*
D03*
X13500D02*
D03*
X18500D02*
D03*
X23500D02*
D03*
X28500D02*
D03*
X33500D02*
D03*
X38500D02*
D03*
X43500D02*
D03*
X48500D02*
D03*
X53500D02*
D03*
X58500D02*
D03*
D92*
X-3500Y-36200D02*
D03*
Y-31200D02*
D03*
Y-26200D02*
D03*
Y-21200D02*
D03*
Y-16200D02*
D03*
Y-11200D02*
D03*
Y-6200D02*
D03*
Y-1200D02*
D03*
Y3800D02*
D03*
Y8800D02*
D03*
Y13800D02*
D03*
Y18800D02*
D03*
X65500D02*
D03*
Y13800D02*
D03*
Y8800D02*
D03*
Y3800D02*
D03*
Y-1200D02*
D03*
Y-6200D02*
D03*
Y-11200D02*
D03*
Y-16200D02*
D03*
Y-21200D02*
D03*
Y-26200D02*
D03*
Y-31200D02*
D03*
Y-36200D02*
D03*
D93*
X31000Y-8700D02*
D03*
D94*
X-93000Y-17000D02*
D03*
X-83500Y3000D02*
D03*
X-102500D02*
D03*
X-93000Y-36900D02*
D03*
X-83500Y-16900D02*
D03*
X-102500D02*
D03*
X98000Y-5200D02*
D03*
X107500Y14800D02*
D03*
X88500D02*
D03*
X98000Y-25200D02*
D03*
X107500Y-5200D02*
D03*
X88500D02*
D03*
M02*
